<?xml version="1.0" standalone="no"?>
<!DOCTYPE svg PUBLIC "-//W3C//DTD SVG 1.1//EN" "http://www.w3.org/Graphics/SVG/1.1/DTD/svg11.dtd" >
<svg xmlns="http://www.w3.org/2000/svg">
<metadata></metadata>
<defs>
<font id="lowvetica_ultra_boldregular" horiz-adv-x="1251" >
<font-face units-per-em="2048" ascent="1638" descent="-410" />
<missing-glyph horiz-adv-x="454" />
<glyph horiz-adv-x="0" />
<glyph horiz-adv-x="0" />
<glyph unicode="&#xd;" horiz-adv-x="454" />
<glyph unicode=" "  horiz-adv-x="454" />
<glyph unicode="&#x09;" horiz-adv-x="454" />
<glyph unicode="&#xa0;" horiz-adv-x="454" />
<glyph unicode="!" horiz-adv-x="370" d="M86 -29v297h201v-297h-201zM86 739v334h201v-334q0 -55 -1 -112.5t-2 -121t-3 -134t-2 -156.5h-181q-4 84 -6 155.5t-3 135t-2 121t-1 112.5z" />
<glyph unicode="&#x22;" horiz-adv-x="720" d="M125 967v522h219v-522h-219zM377 967v522h219v-522h-219z" />
<glyph unicode="#" horiz-adv-x="929" d="M43 262v207h170l10 72h-139v209h170l41 299h219l-41 -299h51l43 299h219l-41 -299h140v-209h-168l-10 -72h137v-207h-168l-41 -301h-221l43 301h-54l-41 -301h-219l41 301h-141zM434 469h51l11 72h-52z" />
<glyph unicode="$" horiz-adv-x="929" d="M-20 440h235q2 -131 34 -189t111 -79l2 264q-53 10 -104 25.5t-98 40.5q-68 37 -111 100.5t-43 163.5q0 74 27.5 129t75 94t113 62.5t138.5 31.5v107h222v-107q76 -12 138 -41.5t107 -82t73 -131t32 -189.5h-232q-8 92 -30.5 143.5t-87.5 73.5v-233q51 -10 105 -23.5 t104 -38.5q72 -35 118.5 -99.5t46.5 -168.5q0 -61 -20.5 -119.5t-65.5 -104.5t-116.5 -78t-171.5 -44v-131h-222v133q-201 29 -290.5 149.5t-89.5 341.5zM252 762q0 -31 18.5 -52.5t89.5 -41.5v194q-37 -8 -59 -19.5t-32.5 -24.5t-13.5 -27.5t-3 -28.5zM582 168 q82 16 105.5 51t23.5 68q0 41 -25.5 62.5t-103.5 39.5v-221z" />
<glyph unicode="%" horiz-adv-x="1327" d="M20 739q0 66 18.5 125.5t58.5 105.5t102.5 73.5t148.5 27.5q84 0 145.5 -26.5t101.5 -71.5t59.5 -105.5t19.5 -126.5t-18.5 -127t-58.5 -108t-101.5 -75t-147.5 -28q-84 0 -146.5 27t-102.5 73t-59.5 107.5t-19.5 128.5zM96 -70l848 1149h268l-850 -1149h-266zM252 741 q0 -76 24.5 -102.5t71.5 -26.5t72.5 28t25.5 97q0 72 -24.5 98.5t-71.5 26.5q-49 0 -73.5 -25.5t-24.5 -95.5zM635 258q0 66 19.5 126t59.5 106.5t101.5 73t147.5 26.5q84 0 145 -26.5t102 -72t60.5 -104.5t19.5 -127q0 -66 -19.5 -126t-59.5 -107t-101 -76t-147 -29 q-84 0 -146.5 26.5t-102.5 73t-59.5 107.5t-19.5 129zM868 260q0 -76 23.5 -102.5t71.5 -26.5q47 0 72.5 27.5t25.5 99.5t-23.5 97.5t-72.5 25.5t-73 -24.5t-24 -96.5z" />
<glyph unicode="&#x26;" horiz-adv-x="944" d="M8 313q0 61 20.5 110.5t54.5 87.5t75 65.5t84 48.5q-6 8 -13.5 17t-15.5 17q-20 35 -35.5 74t-15.5 92q0 39 16.5 85t54 86t98 68t150.5 28q57 0 114.5 -16.5t102.5 -49.5t73 -83t28 -120q0 -49 -15.5 -88t-39 -71.5t-53 -56t-58.5 -42.5l164 -149q0 12 1 33.5t1 74.5 l237 -10q0 -98 -14 -161.5t-39 -110.5l295 -273h-342l-100 99q-84 -66 -174.5 -92.5t-208.5 -26.5q-109 0 -192 29.5t-139 80t-85 117t-29 137.5zM250 315q0 -68 53 -108.5t158 -40.5q72 0 124 17.5t85 37.5l-275 254q-72 -41 -108.5 -74.5t-36.5 -85.5zM401 825 q0 -41 66 -106q35 16 63.5 38.5t28.5 61.5t-45 49q-66 -4 -89.5 -14t-23.5 -29z" />
<glyph unicode="'" horiz-adv-x="454" d="M135 967v522h184v-522h-184z" />
<glyph unicode="(" horiz-adv-x="423" d="M35 518q0 186 62.5 349t176.5 339h240q-72 -125 -119 -215t-75.5 -166.5t-41 -147.5t-12.5 -157t12.5 -156.5t41 -147.5t76.5 -168t120 -216h-311l65 72q-236 270 -235 614z" />
<glyph unicode=")" horiz-adv-x="423" d="M-92 -172q72 125 120 216t76.5 168t41 148.5t12.5 157.5t-12.5 158t-41 148.5t-75.5 166.5t-119 215h242q57 -88 102 -171t74.5 -166t45 -169t15.5 -180q0 -188 -60 -350t-177 -336z" />
<glyph unicode="*" horiz-adv-x="835" d="M6 1155l82 182l223 -71v223h213v-223l224 71l81 -182l-239 -82l164 -180l-170 -123l-166 184l-166 -184l-170 123l164 180z" />
<glyph unicode="+" horiz-adv-x="1228" d="M45 412v215h455v436h229v-436h455v-215h-455v-439h-229v439h-455z" />
<glyph unicode="," horiz-adv-x="454" d="M86 -133q25 12 37 26t16 39q-12 -4 -18 -4h-8v303h219v-237q0 -43 -8.5 -85t-34 -84t-74.5 -83t-129 -78v203z" />
<glyph unicode="-" horiz-adv-x="833" d="M102 481v146h629v-146h-629z" />
<glyph unicode="." horiz-adv-x="454" d="M123 -27v258h209v-258h-209z" />
<glyph unicode="/" horiz-adv-x="583" d="M-133 -61l596 1146h252l-594 -1146h-254z" />
<glyph unicode="0" horiz-adv-x="929" d="M-20 526q0 100 23.5 202.5t79.5 184.5t149.5 133.5t232.5 51.5q143 0 238.5 -51.5t152.5 -132t81 -183t24 -205.5q0 -102 -20.5 -204.5t-75 -183.5t-149.5 -132t-245 -51q-141 0 -236.5 51t-151.5 133t-79.5 184.5t-23.5 202.5zM217 526q0 -162 57.5 -258t196.5 -96 t196.5 93t57.5 263q0 166 -57.5 259.5t-196.5 93.5q-135 0 -194.5 -94.5t-59.5 -260.5z" />
<glyph unicode="1" horiz-adv-x="616" d="M-27 672l2 225q117 4 202 48t120 126h192v-1098h-227v760q-53 -23 -116.5 -36t-172.5 -25z" />
<glyph unicode="2" horiz-adv-x="944" d="M35 600q4 270 116.5 385t325.5 115q211 0 318.5 -99.5t105.5 -261.5q0 -80 -23.5 -139t-80.5 -115q-47 -49 -122 -95t-173 -99q-16 -8 -33.5 -18.5t-40.5 -20.5q-45 -27 -86 -59h580v-220h-875q-4 115 17.5 191t64.5 130t108.5 97t149.5 92q29 16 59.5 31.5t63.5 36.5 q27 16 53.5 33.5t48.5 38.5q29 27 41.5 51t12.5 63q0 66 -42 106t-159 40q-53 0 -89 -12.5t-59.5 -43t-34 -86t-10.5 -141.5h-237z" />
<glyph unicode="3" horiz-adv-x="944" d="M8 449h238q0 -88 13 -142.5t43 -85.5t75 -42t108 -11q96 0 154.5 31.5t58.5 113.5q0 53 -22.5 79t-63.5 38q-39 10 -104 14q-29 4 -67 3t-105 -1l2 220h174q59 4 96 12q33 8 49.5 25.5t16.5 56.5q0 66 -42 93.5t-145 27.5q-51 0 -91 -11.5t-67.5 -40t-42 -80 t-14.5 -131.5h-237q2 133 38 224.5t96 149t142 82t176 24.5q88 0 165 -20.5t134.5 -61.5t90 -103.5t32.5 -146.5q0 -68 -21.5 -119t-62.5 -88q47 -41 78 -103.5t31 -154.5q0 -80 -32 -145.5t-91 -111.5t-143.5 -70.5t-190.5 -24.5q-104 0 -190 26.5t-147.5 86t-95.5 154.5 t-36 233z" />
<glyph unicode="4" horiz-adv-x="940" d="M0 211v172l567 688h195v-643h184v-217h-184v-238h-236v238h-526zM326 428h200v246z" />
<glyph unicode="5" horiz-adv-x="940" d="M10 422h230h2q6 -78 23.5 -127t46 -77t68.5 -38t91 -10q113 2 165 47t52 143q0 33 -11 67t-37 59.5t-68 42t-103 16.5q-82 0 -135 -33t-96 -92h-220l146 653h713v-215h-525l-26 -119q80 25 159 25q100 0 181.5 -29.5t138.5 -83t89 -126t32 -158.5q0 -102 -36 -180 t-99.5 -130.5t-147.5 -79t-182 -26.5q-88 0 -169 26.5t-142.5 83t-99.5 145.5t-40 216z" />
<glyph unicode="6" horiz-adv-x="944" d="M8 487q0 106 16.5 215t68.5 197t149.5 143.5t257.5 55.5q174 0 286.5 -97.5t128.5 -312.5h-157h-74q-2 10 -3 20.5t-5 20.5q-18 90 -67.5 121t-123.5 31q-98 0 -149 -44t-74 -126q45 25 100.5 39t120.5 14q72 0 143.5 -18.5t131.5 -57.5q78 -51 124 -133t46 -193 q0 -88 -32 -163.5t-90 -132t-142.5 -88t-190.5 -31.5q-139 0 -228 47t-142.5 123t-74 173t-20.5 197zM262 358q0 -29 8.5 -62.5t33 -63t67.5 -49t114 -19.5q98 0 152.5 49t54.5 145q0 84 -49.5 135.5t-155.5 51.5q-121 0 -173 -52.5t-52 -134.5z" />
<glyph unicode="7" horiz-adv-x="858" d="M-10 856v215h876v-176q-106 -104 -184 -200.5t-133 -203t-91 -231.5t-59 -285l-249 -6q45 287 133 501t237 386h-530z" />
<glyph unicode="8" horiz-adv-x="944" d="M-2 307q0 98 38 161.5t93 102.5q-47 45 -65.5 98.5t-18.5 112.5q0 100 45 163t111.5 95.5t140.5 44t133 11.5q57 0 131 -11.5t138.5 -45t109.5 -95t45 -160.5q0 -59 -18.5 -114.5t-65.5 -98.5q55 -41 93 -103t38 -161q0 -90 -32.5 -156.5t-95 -111.5t-151 -67.5 t-194.5 -22.5q-217 0 -346 90t-129 268zM233 309q0 -25 9.5 -50.5t36 -45.5t73.5 -32.5t121 -12.5q109 0 172.5 30.5t63.5 108.5q0 31 -9.5 58.5t-40 48t-88 32t-151.5 11.5v32q-113 -35 -150 -78.5t-37 -101.5zM283 768q0 -49 42 -71.5t146 -22.5t147.5 23.5t43.5 76.5 q0 49 -46.5 77t-144.5 28q-100 0 -144 -26t-44 -85z" />
<glyph unicode="9" horiz-adv-x="944" d="M14 690q0 88 32 164t90.5 131t143.5 87t189 32q137 0 227 -47t143.5 -123t74 -173t20.5 -196q0 -106 -17.5 -214.5t-69.5 -196.5t-148.5 -143.5t-256.5 -55.5q-86 0 -159.5 23.5t-128 74.5t-88 129t-41.5 187l161 -4l72 -3q0 -10 1 -19t3 -19q18 -90 66.5 -120t126.5 -30 q98 0 149 44t74 122q-92 -51 -219 -51q-72 0 -142.5 18.5t-130.5 57.5q-78 49 -125 132t-47 193zM248 694q0 -84 50 -134t157 -50q123 0 174 51t51 133q0 27 -8 60.5t-32 63.5t-67.5 49.5t-115.5 19.5q-98 0 -153.5 -50.5t-55.5 -142.5z" />
<glyph unicode=":" horiz-adv-x="454" d="M123 -27v330h209v-330h-209zM123 713v327h209v-327h-209z" />
<glyph unicode=";" horiz-adv-x="454" d="M86 -115q45 25 53 72q-12 -4 -18 -4h-8v336h219v-262q0 -47 -8.5 -95.5t-34 -94.5t-74.5 -90t-129 -85v223zM113 707v333h219v-333h-219z" />
<glyph unicode="&#x3c;" horiz-adv-x="860" d="M4 281v168l852 380v-231l-522 -236l522 -235v-229z" />
<glyph unicode="=" horiz-adv-x="1228" d="M45 254v197h1139v-197h-1139zM45 588v196h1139v-196h-1139z" />
<glyph unicode="&#x3e;" horiz-adv-x="860" d="M4 -102v229l522 235l-522 236v231l852 -385v-168z" />
<glyph unicode="?" horiz-adv-x="903" d="M10 625q0 131 33 221t91.5 146.5t137 81t170.5 24.5q82 0 159 -18.5t136.5 -58.5t95 -102.5t35.5 -152.5q0 -57 -14 -100t-41 -80t-66 -67.5t-88 -63.5q-35 -23 -55 -35t-31.5 -23.5t-15.5 -24t-4 -30.5v-125h-231l-5 107q-2 59 9.5 103t42.5 83q16 18 32.5 32.5 t34.5 26.5l80 58q35 25 57.5 41t36 29.5t18.5 27.5t5 37q0 55 -46 88t-136 33q-53 0 -92.5 -10.5t-64 -38t-36.5 -77.5t-12 -132h-236zM313 -29v297h242v-297h-242z" />
<glyph unicode="@" horiz-adv-x="1638" d="M4 731q0 162 62.5 306.5t174 252t268.5 170t345 62.5q172 0 315.5 -50.5t247 -138.5t160.5 -207.5t57 -257.5q0 -90 -21.5 -171t-58 -149.5t-87 -123.5t-107.5 -96q-68 -49 -139.5 -75t-139.5 -26q-55 0 -101 18.5t-77 59.5q-53 -41 -114.5 -59.5t-122.5 -18.5 q-72 0 -133.5 27t-105.5 75t-68.5 113.5t-24.5 145.5q0 109 38 223.5t107.5 207.5t170 153.5t227.5 60.5q55 0 109 -18.5t95 -53.5q18 12 61.5 18.5t88.5 10.5q53 4 112 4l-28 -86l-203 -602q-4 -14 -8 -26.5t-8 -22.5q-2 -5 -2 -11v3q45 0 98 26.5t100 77.5t79 126t32 169 q0 147 -88 260q-70 88 -185.5 140t-267.5 52q-145 0 -261 -45t-196.5 -121.5t-124.5 -181t-44 -221.5t46 -219t125.5 -180t185 -123t222.5 -45q66 0 131.5 7t126 25.5t115.5 50.5t102 81h70h207q-96 -123 -190.5 -199t-187.5 -118t-185.5 -56t-184.5 -14q-168 0 -316.5 61 t-259 169t-175 252t-64.5 308zM565 596q0 -86 38 -123t89 -37q43 0 91 42t89 106.5t68 140.5t27 145q0 53 -9.5 84t-23.5 46.5t-32 19.5t-34 4q-59 0 -113.5 -40t-96.5 -103.5t-67.5 -139t-25.5 -145.5z" />
<glyph unicode="A" horiz-adv-x="1404" d="M-115 -27l717 1516h201l717 -1516h-269l-207 443h-684l-206 -443h-269zM465 637h475l-238 504z" />
<glyph unicode="B" horiz-adv-x="1478" d="M72 -27v1516h833q229 0 357.5 -104.5t128.5 -305.5q0 -86 -32 -165.5t-114 -139.5q59 -33 97 -78t59.5 -94t29 -96t7.5 -84q0 -66 -23.5 -143.5t-85 -145t-168 -114t-270.5 -46.5h-819zM313 197h559h32t48 2q27 4 55.5 10t57.5 16q51 20 91 67.5t40 137.5q0 82 -35 127 t-87 64.5t-113.5 22.5t-112.5 3h-535v-450zM313 868h551q12 0 32 -1h8q16 0 36 3q23 4 48.5 9.5t47.5 15.5q45 18 79 58t34 120q0 84 -26.5 119t-59.5 49q-47 23 -104.5 25t-108.5 2h-537v-400z" />
<glyph unicode="C" horiz-adv-x="1630" d="M8 731q0 135 49 275.5t150.5 255t258.5 187.5t372 73q137 0 260 -34t222 -106.5t172 -188.5t112 -278h-248q-29 104 -78 177t-116.5 119t-149.5 67.5t-174 21.5q-135 0 -244 -45t-184.5 -122.5t-116.5 -181t-41 -220.5t37 -220t110.5 -180t183 -122t255.5 -45 q209 0 351 115.5t187 359.5h242q-18 -139 -76.5 -266t-157 -223.5t-235.5 -152.5t-311 -56q-176 0 -328 53t-263.5 154.5t-175 249t-63.5 333.5z" />
<glyph unicode="D" horiz-adv-x="1554" d="M72 -27v1516h735q139 0 267 -38t225.5 -126t155.5 -233.5t58 -360.5q0 -160 -44 -299t-133 -240.5t-225 -160t-320 -58.5h-719zM313 197h496q98 0 183 28.5t146.5 93t97.5 166t36 246.5q0 150 -35 252t-99.5 165.5t-153.5 91.5t-198 28h-473v-1071z" />
<glyph unicode="E" horiz-adv-x="1327" d="M72 -27v1516h1257v-221h-1016v-400h975v-221h-975v-450h1028v-224h-1269z" />
<glyph unicode="F" horiz-adv-x="1214" d="M72 -27v1516h1163v-221h-922v-400h871v-221h-871v-674h-241z" />
<glyph unicode="G" horiz-adv-x="1705" d="M29 731q0 135 49 275.5t150.5 255t258 187.5t371.5 73q141 0 264 -36t222.5 -109.5t171 -188.5t106.5 -273h-246q-47 201 -186 293t-332 92q-135 0 -243.5 -45t-184.5 -122.5t-117 -181t-41 -220.5t37 -220t111 -180t183.5 -122t254.5 -45q217 0 354.5 108.5t169.5 309.5 h-559v221h811v-832h-231v174q-104 -104 -245.5 -154t-299.5 -50q-176 0 -327.5 53t-263 154.5t-175 249t-63.5 333.5z" />
<glyph unicode="H" horiz-adv-x="1554" d="M72 -27v1516h241v-610h928v610h242v-1516h-242v684h-928v-684h-241z" />
<glyph unicode="I" horiz-adv-x="382" d="M70 -27v1516h237v-1516h-237z" />
<glyph unicode="J" horiz-adv-x="1099" d="M-2 451v104h240v-104q0 -45 8 -95.5t36.5 -93.5t84 -70.5t151.5 -27.5q145 0 207.5 64.5t62.5 222.5v1038h240v-1032q0 -256 -136 -386t-374 -130q-96 0 -189 24.5t-167 84t-119 156.5t-45 245z" />
<glyph unicode="K" horiz-adv-x="1441" d="M72 -27v1516h241v-707l912 707h383l-832 -645l846 -871h-334l-700 723l-275 -213v-510h-241z" />
<glyph unicode="L" horiz-adv-x="1175" d="M72 -27v1516h241v-1292h914v-224h-1155z" />
<glyph unicode="M" horiz-adv-x="1970" d="M82 -27v1516h258l645 -1176l645 1176h258v-1516h-243v1035l-568 -1035h-184l-567 1035v-1035h-244z" />
<glyph unicode="N" horiz-adv-x="1554" d="M72 -27v1516h227l942 -1118v1118h242v-1516h-228l-942 1119v-1119h-241z" />
<glyph unicode="O" horiz-adv-x="1671" d="M8 731q0 72 17.5 159t56.5 175t102.5 170t155.5 145.5t215 102.5t281 39t280.5 -39t214.5 -102.5t155.5 -145.5t102.5 -170t56.5 -175t17.5 -159t-17.5 -159t-56.5 -175t-102.5 -170t-155.5 -145.5t-214.5 -102t-280.5 -38.5t-281 38.5t-215 102t-155.5 145.5t-102.5 170 t-56.5 175t-17.5 159zM252 731q0 -111 39 -213t112.5 -181t182 -126t250.5 -47q141 0 249.5 47t182 126t112.5 181.5t39 212.5q0 111 -39 214.5t-112.5 182t-182 125.5t-249.5 47t-250 -47t-182.5 -125.5t-112.5 -182t-39 -214.5z" />
<glyph unicode="P" horiz-adv-x="1366" d="M72 -27v1516h807q80 0 169 -18.5t162.5 -68.5t121.5 -138t48 -228q0 -102 -31.5 -186t-96 -144.5t-161 -94t-227.5 -33.5h-551v-605h-241zM313 799h549q57 0 107.5 11t88.5 37.5t59.5 72t21.5 112.5q0 88 -29 135t-73 70t-96 27t-99 4h-529v-469z" />
<glyph unicode="Q" horiz-adv-x="1671" d="M8 729q0 72 17.5 159t56.5 175t102.5 171t155.5 146.5t215 102.5t281 39t280.5 -39t214.5 -102.5t155.5 -146.5t102.5 -171t56.5 -175t17.5 -159q0 -61 -11.5 -131t-38 -142.5t-67.5 -143.5t-98 -132l221 -153l-133 -189l-279 195q-88 -47 -189 -71.5t-232 -24.5 q-158 0 -281 38.5t-215 102t-155.5 146.5t-102.5 171t-56.5 175t-17.5 159zM252 729q0 -111 39 -213t112.5 -182t182 -127t250.5 -47q55 0 104 7t92 19l-180 123l133 191l264 -187q86 86 128 191.5t42 224.5q0 111 -39 214.5t-112.5 183t-182 126.5t-249.5 47t-250 -47 t-182.5 -126.5t-112.5 -183t-39 -214.5z" />
<glyph unicode="R" horiz-adv-x="1441" d="M72 -27v1516h794q104 0 203.5 -19.5t176.5 -68.5t123 -133t46 -215q0 -94 -42 -183.5t-132 -150.5q74 -49 111 -125t41 -166q2 -96 6 -160.5t12 -113t22.5 -89t39.5 -92.5h-238q-47 41 -63.5 132.5t-20.5 256.5q-2 74 -13.5 119t-41 72t-85 36t-147.5 9h-551v-625h-241z M313 819h537h36.5t51.5 4q27 4 54.5 10.5t54.5 16.5q49 23 88 69t39 140q0 119 -79.5 164t-220.5 45h-561v-449z" />
<glyph unicode="S" horiz-adv-x="1366" d="M6 571h242q0 -104 23.5 -181t77.5 -127t143.5 -74.5t218.5 -24.5q121 0 197.5 21.5t120.5 55t60.5 74.5t16.5 82q0 37 -8 67t-39 54.5t-93.5 46t-168.5 43.5l-262 56q-121 25 -211.5 58.5t-151.5 83.5t-92 120.5t-31 167.5q0 98 43 177t123 135t192.5 86t249.5 30 q139 0 259 -29t208 -95.5t140.5 -174t58.5 -265.5h-242q-4 72 -21.5 134.5t-60.5 108.5t-119.5 72.5t-197.5 26.5t-195.5 -18t-115.5 -48t-54.5 -68t-13.5 -74q0 -37 7 -66t35 -53.5t82 -45t148 -38.5l289 -55q106 -20 197.5 -51t158 -81.5t103.5 -123t37 -177.5 q0 -86 -34 -168.5t-108.5 -147.5t-197.5 -104.5t-301 -39.5q-373 0 -543 160.5t-170 469.5z" />
<glyph unicode="T" horiz-adv-x="1212" d="M-82 1268v221h1376v-221h-567v-1295h-242v1295h-567z" />
<glyph unicode="U" horiz-adv-x="1515" d="M59 551v938h242v-934q0 -94 22.5 -167t76 -123t141.5 -75.5t217 -25.5t217 25.5t141 75.5t75.5 123t22.5 167v934h242v-938q0 -305 -178 -457.5t-520 -152.5t-520.5 152.5t-178.5 457.5z" />
<glyph unicode="V" horiz-adv-x="1368" d="M-109 1489h267l526 -1151l526 1151h267l-691 -1516h-204z" />
<glyph unicode="W" horiz-adv-x="2084" d="M-111 1489h265l372 -1098l404 1098h225l404 -1098l372 1098h264l-520 -1516h-225l-408 1106l-407 -1106h-225z" />
<glyph unicode="X" horiz-adv-x="1327" d="M-154 -27l660 770l-637 746h317l478 -563l487 563h309l-637 -746l658 -770h-318l-499 588l-506 -588h-312z" />
<glyph unicode="Y" horiz-adv-x="1368" d="M-172 1489h319l537 -668l549 668h307l-735 -891v-625h-242v625z" />
<glyph unicode="Z" d="M-61 -27v195l1011 1100h-946v221h1292v-189l-1013 -1103h1030v-224h-1374z" />
<glyph unicode="[" horiz-adv-x="423" d="M74 -299v1374h364v-219h-143v-936h143v-219h-364z" />
<glyph unicode="\" horiz-adv-x="583" d="M-137 1096h254l594 -1147h-254z" />
<glyph unicode="]" horiz-adv-x="423" d="M-16 -80h143v936h-143v219h364v-1374h-364v219z" />
<glyph unicode="^" horiz-adv-x="860" d="M-63 324l405 725h180l402 -725h-248l-246 430l-246 -430h-247z" />
<glyph unicode="_" horiz-adv-x="1024" d="M-51 -129h1126v-154h-1126v154z" />
<glyph unicode="`" horiz-adv-x="339" d="M-119 1366h322l246 -176h-271z" />
<glyph unicode="a" horiz-adv-x="1214" d="M2 305q0 98 41 162.5t105.5 103.5t144.5 57.5t158 22.5l352 23q31 2 47 5t24.5 9t9.5 19.5t1 35.5q0 27 -7.5 53.5t-37 48t-89 34t-163.5 12.5q-78 0 -130 -9.5t-86 -33t-52.5 -60t-28.5 -92.5h-246q23 119 67 199t111.5 127t158.5 66.5t208 19.5q111 0 208 -15.5 t169.5 -55.5t115.5 -108.5t43 -174.5v-541q0 -10 1 -21.5t1 -21.5q14 2 47 10t107 33v-225q-68 -20 -106.5 -27.5t-79.5 -7.5q-82 0 -123 30.5t-58 79.5q-53 -41 -111.5 -65.5t-115.5 -36.5t-108.5 -16t-90.5 -4q-27 0 -72.5 2t-100 13t-110.5 34.5t-101.5 63.5t-74 101.5 t-28.5 149.5zM260 305q0 -51 25.5 -79.5t63.5 -43t82 -17.5t81 -3q74 0 144.5 15.5t125 45t87 76t32.5 107.5v67q-20 -4 -39.5 -6t-42.5 -4l-340 -23q-125 -8 -172 -41.5t-47 -93.5z" />
<glyph unicode="b" horiz-adv-x="1214" d="M66 -27v1102h735q172 0 271 -80t99 -233q0 -53 -17 -106.5t-60 -96.5q35 -29 56 -59.5t34 -59.5q12 -29 16 -51t4 -43v-22v-9q0 -49 -18.5 -109.5t-64.5 -111.5t-125.5 -86t-204.5 -35h-725zM303 190h475h25q4 -1 8 -1h3q5 1 13 4q41 2 70 14t49.5 34.5t20.5 75.5 q0 49 -18.5 71t-43.5 32q-31 12 -70.5 13t-74.5 1h-457v-244zM303 651h467h19.5t27.5 2q31 4 57 13q23 10 41.5 29.5t18.5 64.5q0 47 -42 74.5t-130 27.5h-459v-211z" />
<glyph unicode="c" d="M2 514q0 143 52 255t140.5 186.5t205 113.5t245.5 39q123 0 229.5 -34t185.5 -95t126 -149.5t53 -196.5h-240q-4 51 -29.5 98t-70.5 82t-108.5 56.5t-145.5 21.5q-102 0 -177 -31t-125 -83t-74.5 -120.5t-24.5 -142.5q0 -49 19.5 -111.5t66.5 -116t123.5 -90t191.5 -36.5 q135 0 236.5 65.5t140.5 225.5h246q-31 -141 -93.5 -238.5t-144.5 -158t-181.5 -87t-203.5 -26.5q-139 0 -257 42t-204 116.5t-134 180t-48 234.5z" />
<glyph unicode="d" horiz-adv-x="1202" d="M66 -25v1102h602q102 0 197.5 -28.5t168 -93t115.5 -170t43 -259.5q0 -115 -33 -215t-98.5 -175t-167 -118t-238.5 -43h-589zM303 193h365q61 0 112 17t90 56t60.5 102.5t21.5 157.5t-22.5 159t-62.5 104.5t-94 56t-120 16.5h-350v-669z" />
<glyph unicode="e" d="M2 532q0 84 30.5 184.5t104.5 187.5t197 145.5t305 58.5q150 0 266.5 -48t196.5 -135t122 -211t44 -278h-1016q25 -125 123 -200.5t272 -75.5q106 0 168 24.5t98 59.5q12 12 28.5 33.5t30 42t21.5 36t6 15.5h244q2 6 4 8t-2 -8q-47 -119 -108.5 -201t-137 -133 t-166 -73.5t-196.5 -22.5q-145 0 -262 42t-200 118.5t-128 186t-45 244.5zM264 653h733q-41 123 -140 180.5t-228 57.5q-143 0 -233.5 -62.5t-131.5 -175.5z" />
<glyph unicode="f" horiz-adv-x="950" d="M61 -29v1102h869v-215h-633v-211h598v-215h-598v-461h-236z" />
<glyph unicode="g" horiz-adv-x="1263" d="M4 522q0 100 40 203.5t120 188.5t200.5 139.5t280.5 54.5q98 0 190.5 -24.5t169 -78t136 -136.5t92.5 -201h-244q-41 117 -133 168t-213 51q-88 0 -160.5 -30t-126 -80t-83 -115.5t-29.5 -139.5t26.5 -140.5t77.5 -116.5t126 -78.5t171 -28.5q133 0 223 59t123 170h-407 v217h661v-645h-231v111q-92 -74 -184.5 -102.5t-186.5 -28.5q-129 0 -244.5 38.5t-204 114.5t-139.5 183.5t-51 246.5z" />
<glyph unicode="h" d="M68 -25v1102h237v-418h645v418h238v-1102h-238v469h-645v-469h-237z" />
<glyph unicode="i" horiz-adv-x="339" d="M57 -27v1102h238v-1102h-238z" />
<glyph unicode="j" horiz-adv-x="868" d="M31 322v104h233v-104q0 -25 6 -53.5t25.5 -53.5t54.5 -41t92 -16q90 0 131 36.5t41 127.5v743h234v-737q0 -94 -31 -167t-86 -122t-129 -73.5t-160 -24.5q-70 0 -142.5 18t-133 62.5t-98 117t-37.5 183.5z" />
<glyph unicode="k" horiz-adv-x="1138" d="M63 -27v1098h242v-434l608 438h381l-616 -444l608 -658h-323l-478 519l-180 -130v-389h-242z" />
<glyph unicode="l" horiz-adv-x="917" d="M27 -27v1102h235v-885h711v-217h-946z" />
<glyph unicode="m" horiz-adv-x="1974" d="M63 -27v1104h244v-59q139 90 320 90q152 0 247 -42t150 -112q137 154 387 154q248 0 374 -106.5t126 -305.5v-723h-244v695q0 47 -13.5 88t-43 71.5t-77.5 48t-120 17.5q-160 0 -232.5 -67.5t-72.5 -188.5v-664h-242v713q0 98 -54 152.5t-202 54.5q-141 0 -222 -70.5 t-81 -204.5v-645h-244z" />
<glyph unicode="n" d="M63 -27v1104h242v-71q63 47 149.5 74.5t198.5 27.5q133 0 224.5 -26.5t150.5 -68.5t91 -94.5t47.5 -104.5t18.5 -99t3 -76v-666h-242v662q0 61 -11 109.5t-43 81t-90.5 50t-150.5 17.5q-94 0 -159.5 -24.5t-107.5 -64.5t-60.5 -92.5t-18.5 -105.5v-633h-242z" />
<glyph unicode="o" horiz-adv-x="1290" d="M2 524q0 113 44 218.5t127 187.5t202 130t270 48q152 0 270.5 -48t201.5 -130t127 -187.5t44 -218.5q0 -117 -44 -222t-127 -185t-201.5 -128t-270.5 -48t-270.5 48t-201.5 128t-127 185.5t-44 221.5zM244 524q0 -70 24.5 -135t73.5 -116.5t125 -82t178 -30.5t178 30.5 t125 82t74 117t25 134.5q0 70 -25 135.5t-75 116.5t-126 83t-176 32q-102 0 -177 -32t-125 -83t-74.5 -116.5t-24.5 -135.5z" />
<glyph unicode="p" horiz-adv-x="1214" d="M66 -27v1102h737q59 0 126.5 -13t124 -51t93.5 -104.5t37 -173.5q0 -154 -97 -250t-294 -96h-490v-414h-237zM303 602h488q72 0 114.5 27.5t42.5 101.5q0 31 -5 50.5t-12 31.5t-16.5 19.5t-17.5 11.5q-23 10 -52.5 13t-68.5 3h-473v-258z" />
<glyph unicode="q" horiz-adv-x="1290" d="M2 522q0 115 44 220.5t127 187.5t202 130t270 48q152 0 270.5 -48t201.5 -130t127 -187.5t44 -220.5q0 -193 -114 -344l151 -102l-133 -182l-197 131q-74 -41 -160.5 -63.5t-189.5 -22.5q-152 0 -270.5 48t-201.5 128t-127 185.5t-44 221.5zM244 522q0 -70 24.5 -135 t73.5 -116.5t124 -82t177 -30.5q39 0 72 4t61 10l-114 78l135 182l182 -125q68 94 68 215q0 70 -25 136.5t-75 117.5t-126 83t-176 32q-102 0 -177 -32t-125 -83t-74.5 -117.5t-24.5 -136.5z" />
<glyph unicode="r" horiz-adv-x="778" d="M63 -27v1104h238v-82q66 51 150 73t178 22q31 0 57.5 -6.5t89.5 -22.5v-242q-43 14 -68.5 22.5t-43 13.5t-31 6t-31.5 1q-76 0 -132 -23.5t-94 -63.5t-56.5 -94t-18.5 -116v-592h-238z" />
<glyph unicode="s" horiz-adv-x="1099" d="M-12 416h237q4 -53 16.5 -99.5t48.5 -81t103.5 -55t184.5 -20.5q94 0 151 11t88 31.5t40 45t9 53.5q0 47 -27.5 70.5t-105.5 34.5l-352 45q-49 6 -108.5 23.5t-113 52t-89 93t-35.5 144.5q0 57 24.5 117.5t82 110.5t152.5 83t236 33q154 0 255.5 -34t164 -95t90 -144 t33.5 -182h-242q-4 66 -19 111t-49 73.5t-91.5 41t-145.5 12.5q-84 0 -134 -13.5t-75.5 -32t-33 -39t-7.5 -36.5q0 -41 27 -63.5t109 -32.5l317 -41q74 -10 142.5 -31.5t120.5 -59.5t84 -96.5t32 -144.5q0 -82 -28.5 -139.5t-75 -97t-105.5 -64.5t-120.5 -38t-120 -17 t-103.5 -4q-109 0 -208 21.5t-177 75.5t-126 146t-56 232z" />
<glyph unicode="t" horiz-adv-x="997" d="M-51 860v215h1100v-215h-431v-887h-237v887h-432z" />
<glyph unicode="u" d="M63 410v665h242v-661q0 -61 11.5 -108.5t43 -80t90 -50t150.5 -17.5q94 0 159.5 24.5t107.5 64.5t60.5 91t18.5 104v633h242v-1104h-242v72q-63 -47 -150 -74.5t-198 -27.5q-133 0 -224 26.5t-150.5 68.5t-91.5 94t-47 104.5t-18.5 99.5t-3.5 76z" />
<glyph unicode="v" horiz-adv-x="1138" d="M-90 1075h268l391 -778l392 778h268l-567 -1102h-185z" />
<glyph unicode="w" horiz-adv-x="1781" d="M-100 1075h268l313 -727l299 727h219l310 -727l305 727h268l-477 -1102h-207l-307 738l-307 -738h-207z" />
<glyph unicode="x" horiz-adv-x="1099" d="M-168 -27l555 572l-512 530h328l348 -362l350 362h320l-512 -524l557 -578h-326l-395 408l-395 -408h-318z" />
<glyph unicode="y" horiz-adv-x="1024" d="M-154 1075h310l352 -436l362 436h299l-542 -653v-449h-238v449z" />
<glyph unicode="z" horiz-adv-x="1062" d="M-27 -27v185l715 702h-663v215h1038v-162l-735 -723h762v-217h-1117z" />
<glyph unicode="{" horiz-adv-x="423" d="M-33 285l2 207q37 2 55.5 12t25.5 27.5t8 42t1 57.5v203q0 113 45.5 177t149.5 64h156v-219h-125v-45v-203q0 -76 -13.5 -129t-40.5 -92q53 -78 54 -221v-201q0 -31 -14.5 -38t-4.5 -7h144v-219h-156q-104 0 -149.5 64.5t-45.5 177.5v202v50.5t-7 42t-26.5 31t-58.5 16.5 z" />
<glyph unicode="|" horiz-adv-x="317" d="M45 -51v1147h205v-1147h-205z" />
<glyph unicode="}" horiz-adv-x="423" d="M-33 -80h146q6 0 3 1t-8.5 6t-10.5 14.5t-5 25.5l2 199q0 76 14.5 129t36.5 92q-27 37 -40 90t-13 131v203q0 16 5 25.5t11.5 13.5t8.5 5t-4 1h-146v219h158q104 0 150.5 -64.5t43.5 -176.5l-2 -203q0 -33 1 -57.5t9.5 -42t27 -27.5t53.5 -12l2 -207q-41 -4 -59.5 -16.5 t-26 -31t-6.5 -42t1 -50.5v-202q0 -113 -45 -177.5t-149 -64.5h-158v219z" />
<glyph unicode="~" horiz-adv-x="860" d="M27 340q53 76 111.5 121t156.5 45q55 0 97 -13.5t89 -29.5q16 -6 30.5 -12.5t29.5 -12.5q18 -6 37 -6q16 0 34.5 26.5t69.5 104.5l166 -145q-29 -33 -59.5 -61.5t-80 -51t-123 -36t-188.5 -13.5l39 31q-12 4 -24.5 9t-24.5 9q-25 10 -49.5 17.5t-34.5 7.5 q-14 0 -24.5 -6.5t-20.5 -21.5t-23.5 -42t-35.5 -70z" />
<glyph unicode="&#xa1;" horiz-adv-x="370" d="M90 25q0 55 1 112.5t2 121t3 135t2 157.5h181q2 -86 5 -157.5t4 -135t2 -121t1 -112.5v-334h-201v334zM90 498v295h201v-295h-201z" />
<glyph unicode="&#xa2;" horiz-adv-x="1327" d="M41 514q0 129 40 231.5t110.5 178t166 123t203.5 63.5v186h217v-182q106 -12 195.5 -51t155 -100.5t104.5 -144.5t45 -183h-240q-8 88 -74.5 159.5t-185.5 94.5v-733q104 16 176 80.5t105 212.5h244q-27 -129 -78 -222.5t-120 -156t-152 -96.5t-175 -42v-215h-217v220 q-115 16 -210 64t-164.5 124t-107.5 174t-38 215zM283 514q0 -45 14 -98.5t47 -103.5t86 -90t131 -58v719q-70 -18 -122 -54t-87 -84.5t-52 -107.5t-17 -123z" />
<glyph unicode="&#xa3;" horiz-adv-x="1327" d="M8 100q76 66 128 118t85 97t48.5 87t15.5 90q0 25 -6.5 51t-16.5 49h-203v209h101q-68 137 -68 260q0 33 8.5 78t31 94t62 97t103 86t155 61.5t216.5 23.5q182 0 298.5 -48t183.5 -131t92.5 -194.5t25.5 -236.5h-242q0 121 -24.5 196.5t-70.5 118.5t-112.5 58.5 t-152.5 15.5q-70 0 -130.5 -12.5t-105.5 -39t-70.5 -68.5t-25.5 -99q0 -29 10 -63.5t24.5 -69.5t31 -68t30.5 -59h475v-209h-389q10 -45 10 -86q0 -72 -23.5 -136.5t-60.5 -121.5h37q59 0 115.5 -15.5t112.5 -31.5q27 -6 51 -14.5t47 -12.5q23 -6 39 -8t33 -2q76 0 148.5 49 t166.5 166l121 -217q-127 -127 -234.5 -174t-201.5 -47q-70 0 -129.5 15t-112.5 32q-43 12 -88 25.5t-92 13.5q-41 0 -69 -3.5t-60.5 -14.5t-76.5 -31.5t-116 -57.5z" />
<glyph unicode="&#xa4;" horiz-adv-x="1327" d="M78 317l125 111q-47 66 -72 140.5t-27 152.5q-4 158 97 295l-123 112l168 144l112 -107q133 88 306 88q78 2 156.5 -19.5t148.5 -68.5l114 113l156 -156l-113 -106q96 -137 97 -295q-1 -156 -97 -293l113 -106l-156 -156l-112 110q-72 -47 -151 -67.5t-156 -20.5 q-168 0 -308 88l-110 -106zM346 721q0 -63 25.5 -119.5t68.5 -97.5t100.5 -65.5t123.5 -24.5t123 24.5t100 65.5t68.5 97t25.5 120q0 63 -25.5 120.5t-68.5 98.5t-100 65.5t-123 24.5t-123.5 -24.5t-100.5 -65.5t-68.5 -98.5t-25.5 -120.5z" />
<glyph unicode="&#xa5;" horiz-adv-x="1327" d="M-147 1468h317l494 -643l505 643h306l-539 -677h266v-209h-416l-2 -72h418v-209h-418v-328h-241v328h-418v209h418v84q-6 -2 -27.5 -4t-52.5 -3t-68 -2t-73 -1q-88 -2 -197 -2v209h266z" />
<glyph unicode="&#xa6;" horiz-adv-x="454" d="M135 -59v665h184v-665h-184zM135 858v664h184v-664h-184z" />
<glyph unicode="&#xa7;" horiz-adv-x="1327" d="M39 692q0 59 17.5 106.5t45 83.5t61.5 62.5t66 44.5q-29 33 -46 78t-17 109q0 88 38 152.5t101.5 107.5t147.5 64.5t174 21.5q111 0 205 -22.5t162.5 -80t108.5 -153t40 -242.5h-242q0 47 -4 95t-28.5 88t-76 65.5t-145.5 25.5q-41 0 -82 -2t-78 -16q-35 -12 -57 -36.5 t-22 -74.5q0 -8 2 -19t12 -23.5t29.5 -27t56.5 -30.5l522 -240q51 -25 98.5 -55.5t82 -69t56 -88t21.5 -110.5q0 -66 -17.5 -116t-46 -88t-63 -63.5t-67.5 -43.5q27 -35 44 -81t17 -112q0 -121 -51 -191.5t-127 -108.5t-164 -49t-162 -11q-66 0 -151.5 15t-163.5 67.5 t-132 154t-54 275.5h241q0 -86 14.5 -141.5t45 -88.5t81 -46t123.5 -13h28.5t41.5 2t46.5 5t45.5 9q45 14 70.5 39t25.5 70q0 47 -21.5 71.5t-68.5 51.5q-18 10 -37.5 18t-42.5 19l-399 184q-166 76 -235.5 160t-69.5 198zM281 705q0 -29 9 -49.5t28.5 -39t52 -36 t82.5 -37.5l440 -201q43 6 86 29q29 16 48.5 41.5t19.5 68.5q0 57 -40 88t-108 62l-473 217q-18 -4 -44 -16.5t-48.5 -31t-37.5 -43t-15 -52.5z" />
<glyph unicode="&#xa8;" horiz-adv-x="339" d="M-145 1200v268h235v-268h-235zM250 1200v268h235v-268h-235z" />
<glyph unicode="&#xa9;" horiz-adv-x="1638" d="M4 731q0 162 63.5 306.5t174 252t259 170t318.5 62.5q168 0 316.5 -62.5t259 -170t175 -252t64.5 -306.5t-64.5 -306t-175 -251.5t-259 -170t-316.5 -62.5q-170 0 -318.5 62.5t-259 170t-174 251.5t-63.5 306zM236 731q0 -119 46 -222t125.5 -180t185 -121t226.5 -44 q119 0 225.5 44t186.5 121t126 180t46 222q0 117 -46 221.5t-126 181t-186.5 121.5t-225.5 45q-121 0 -226.5 -45t-185 -121.5t-125.5 -181t-46 -221.5zM319 733q0 113 36 208t103.5 166t165 110.5t220.5 39.5q86 0 161.5 -25.5t137 -79.5t104.5 -138t62 -199h-232 q-27 131 -84 182.5t-149 51.5q-137 0 -215 -85t-78 -231q0 -70 21.5 -128t59.5 -101t92 -66.5t120 -23.5q90 0 147.5 52t85.5 191h230q-16 -113 -59.5 -197.5t-105 -141t-137 -85t-161.5 -28.5q-121 0 -217.5 41t-165 112.5t-105.5 168t-37 206.5z" />
<glyph unicode="&#xaa;" horiz-adv-x="788" d="M-16 1014q0 61 25.5 104t68.5 68.5t98 39t113 17.5l215 14q12 0 23.5 -6t11.5 4q0 12 -3.5 22.5t-17.5 20t-44 14.5t-81 5q-53 0 -85 -7t-50 -22.5t-24.5 -43t-6.5 -66.5h-215q0 100 34 162.5t87 98.5t116.5 49t123.5 13q66 0 133 -8t122.5 -32.5t90.5 -68.5t35 -116 v-291q14 4 36.5 10t61.5 19v-199q-47 -10 -60.5 -12t-19.5 -4t-20 -2q-4 -2 -21 -2q-6 0 -13 1t-18 1q-88 0 -125 41q-68 -43 -137 -53.5t-116 -10.5q-96 0 -162 21.5t-105 55.5t-55 77t-16 86zM199 1012q0 -23 24.5 -38.5t102.5 -15.5q86 0 149.5 34t63.5 83h-13.5 t-13.5 -2l-217 -14q-53 -4 -74.5 -14.5t-21.5 -32.5z" />
<glyph unicode="&#xab;" horiz-adv-x="909" d="M98 485v136l406 387v-293l-164 -162l164 -162v-293zM377 485v136l405 387v-293l-164 -162l164 -162v-293z" />
<glyph unicode="&#xac;" horiz-adv-x="1228" d="M45 584v200h1139v-587h-230v387h-909z" />
<glyph unicode="&#xad;" horiz-adv-x="833" d="M102 481v146h629v-146h-629z" />
<glyph unicode="&#xae;" horiz-adv-x="1638" d="M4 731q0 162 63.5 306.5t174 252t259 170t318.5 62.5q168 0 316.5 -62.5t259 -170t175 -252t64.5 -306.5t-64.5 -306t-175 -251.5t-259 -170t-316.5 -62.5q-170 0 -318.5 62.5t-259 170t-174 251.5t-63.5 306zM236 731q0 -119 46 -222t125.5 -180t185 -121t226.5 -44 q119 0 225.5 44t186.5 121t126 180t46 222q0 117 -46 221.5t-126 181t-186.5 121.5t-225.5 45q-121 0 -226.5 -45t-185 -121.5t-125.5 -181t-46 -221.5zM459 236v993h411q72 0 137.5 -13.5t116 -48t80 -94t29.5 -151.5q0 -113 -51.5 -175.5t-130.5 -95.5l284 -415h-272 l-264 387h-111v-387h-229zM688 834h111q66 0 105.5 4t61 15t28.5 27.5t7 41.5q0 57 -27.5 77.5t-103.5 20.5h-182v-186z" />
<glyph unicode="&#xaf;" horiz-adv-x="339" d="M-272 1286v121h884v-121h-884z" />
<glyph unicode="&#xb0;" horiz-adv-x="819" d="M61 1178q0 66 27 124t74 103t110.5 70.5t137.5 25.5t137 -25.5t110.5 -70.5t74 -103.5t26.5 -123.5q0 -66 -26.5 -124.5t-74 -102.5t-110.5 -69.5t-137 -25.5t-137.5 25.5t-110.5 69.5t-74 102.5t-27 124.5zM274 1178q0 -53 42 -91t94 -38q51 0 93 37.5t42 91.5 q0 55 -43 93t-92 38t-92.5 -38t-43.5 -93z" />
<glyph unicode="&#xb1;" horiz-adv-x="1228" d="M45 -27v217h1139v-217h-1139zM45 496v215h455v352h229v-352h455v-215h-455v-353h-229v353h-455z" />
<glyph unicode="&#xb2;" horiz-adv-x="862" d="M16 578q8 63 18.5 108t24 79t30.5 57.5t40 45.5q43 37 96 68q27 16 56.5 31.5t66.5 33.5l123 62q25 12 43 24.5t35 22.5q29 23 40 42t11 54q0 53 -42 79t-116 26q-104 0 -145 -49.5t-41 -174.5h-215q0 115 26.5 194t79 128t126 70.5t169.5 21.5q59 0 125 -14t121 -48 t91 -91.5t36 -141.5q0 -55 -16.5 -99t-46 -80t-69.5 -64.5t-87 -55.5q-31 -16 -65.5 -32.5t-71.5 -34.5q-43 -23 -76 -39.5t-59 -32.5h512v-190h-820z" />
<glyph unicode="&#xb3;" horiz-adv-x="862" d="M18 961h215q0 -74 14.5 -120t42 -71t66.5 -34t86 -9q84 0 135.5 29.5t51.5 89.5q0 41 -19.5 61.5t-54.5 30.5q-33 10 -90 14q-27 2 -58.5 2h-95.5v191h89t55 2q23 2 44 4t40 6q35 10 51 24.5t16 43.5q0 41 -41 63.5t-119 22.5q-43 0 -77.5 -9.5t-59 -32t-38 -64.5 t-13.5 -105h-217q2 119 36 195.5t90 122.5t131 64.5t161 18.5q47 0 109.5 -11t118.5 -42t95 -84t39 -139q0 -59 -19.5 -99.5t-53.5 -68.5q45 -35 70.5 -88.5t25.5 -124.5q0 -96 -43 -156.5t-105.5 -94.5t-135.5 -45t-132 -11q-82 0 -155.5 19t-130 66.5t-90.5 129.5t-34 209 z" />
<glyph unicode="&#xb4;" horiz-adv-x="339" d="M-94 1190l215 176h305l-262 -176h-258z" />
<glyph unicode="&#xb5;" d="M63 -440v1515h242v-676q0 -61 11.5 -110t43 -82t90 -50.5t150.5 -17.5q94 0 159.5 24.5t107.5 65.5t60.5 92.5t18.5 106.5v647h242v-1128h-242v76q-63 -47 -150 -77t-198 -30q-98 0 -169 18.5t-124 47.5v-422h-242z" />
<glyph unicode="&#xb6;" horiz-adv-x="1228" d="M53 1034q0 113 36 198t102.5 142.5t160.5 86t209 28.5h496v-1815h-230v1592h-145v-1592h-227v918q-86 12 -160 52t-128 99.5t-84 134t-30 156.5z" />
<glyph unicode="&#xb7;" horiz-adv-x="454" d="M61 655q0 53 45.5 97.5t120.5 44.5q76 0 121 -44t45 -98q0 -53 -45 -96t-121 -43t-121 43t-45 96z" />
<glyph unicode="&#xb8;" horiz-adv-x="339" d="M-127 -362l64 167q16 -6 43.5 -14t58.5 -15t59.5 -13.5t51.5 -6.5q4 0 12 -1t18 1h16.5t14.5 2t11 3t5 8q0 10 -14 5t-25 -5q-20 0 -34.5 -2.5t-34.5 -8.5l-22.5 -9t-28.5 -13l-119 96l178 195h264l-100 -97q29 -6 57.5 -18t51 -30.5t36 -45t13.5 -61.5q0 -57 -31 -94 t-74 -58.5t-91 -30t-83 -8.5q-53 0 -126 13.5t-171 40.5z" />
<glyph unicode="&#xb9;" horiz-adv-x="794" d="M63 1128v197q106 6 183.5 43t107.5 109h178v-916h-208v621q-47 -18 -105.5 -29.5t-155.5 -24.5z" />
<glyph unicode="&#xba;" horiz-adv-x="839" d="M-16 1137q0 90 36.5 157.5t97 113.5t139.5 69.5t163 23.5t163 -23.5t139 -69.5t97 -113.5t37 -157.5t-37 -159t-97 -114t-139 -67.5t-163 -22.5t-163 22.5t-139.5 67.5t-97 114t-36.5 159zM199 1137q0 -33 13 -65t41 -57.5t70 -41t97 -15.5t96 16.5t68.5 42t42 57.5 t14.5 63q0 33 -14.5 65.5t-42 58t-68.5 41t-96 15.5t-97 -15.5t-70 -41t-41 -58.5t-13 -65z" />
<glyph unicode="&#xbb;" horiz-adv-x="909" d="M127 98v293l164 162l-164 162v293l405 -387v-136zM406 98v293l163 162l-163 162v293l405 -387v-136z" />
<glyph unicode="&#xbc;" horiz-adv-x="1990" d="M12 1116v205q119 4 203 45t119 113h186v-957h-219v652q-53 -20 -118.5 -33t-170.5 -25zM297 -59l1001 1560h258l-1003 -1560h-256zM1055 182v162l528 584h178v-547h178v-199h-178v-211h-219v211h-487zM1362 381h180v201z" />
<glyph unicode="&#xbd;" horiz-adv-x="1990" d="M12 1116v205q119 4 203 45t119 113h186v-957h-219v652q-53 -20 -118.5 -33t-170.5 -25zM297 -59l1001 1560h256l-1001 -1560h-256zM1065 -29q8 66 17.5 114t23.5 83t32.5 60.5t43.5 47.5q37 37 100 72q29 16 59.5 31.5t67.5 36.5q35 18 65.5 31.5t59.5 29.5t48.5 28.5 t35.5 24.5q29 20 41 42t12 57q0 51 -43 79.5t-125 28.5q-111 0 -152.5 -50t-41.5 -181h-219q0 119 27.5 200.5t80.5 133t130 74t175 22.5q61 0 130 -15.5t125.5 -50t94 -94t37.5 -147.5q0 -72 -25.5 -126t-73.5 -97.5t-116.5 -81t-154.5 -78.5q-45 -23 -79 -40.5t-61 -33.5 h533v-201h-848z" />
<glyph unicode="&#xbe;" horiz-adv-x="1990" d="M59 940h220q0 -76 15 -123t44 -73.5t68.5 -36t91.5 -9.5q90 0 143 32t53 91q0 41 -20.5 63.5t-55.5 33.5q-20 6 -43.5 9t-50.5 5q-29 2 -61.5 2h-97.5v199h147q25 2 47.5 4t40.5 8q70 16 70 69q0 88 -166 89q-47 0 -84 -9.5t-62.5 -34t-39 -66.5t-13.5 -110h-223 q2 125 38 206t94 128t136 65.5t166 18.5q47 0 111.5 -11t123 -43t99.5 -88t41 -145q0 -61 -20.5 -103t-55.5 -71q47 -39 72.5 -93t25.5 -128q0 -102 -44 -164.5t-108.5 -96.5t-139.5 -46t-138 -12q-84 0 -160.5 19.5t-135 69.5t-93.5 135t-35 216zM436 -59l1002 1560h258 l-1002 -1560h-258zM1055 182v162l528 588h178v-551h178v-199h-178v-211h-219v211h-487zM1362 381h180v203z" />
<glyph unicode="&#xbf;" horiz-adv-x="903" d="M37 -10q0 109 56.5 178.5t154.5 134.5l67 45q14 8 19.5 13.5l7.5 7.5q4 4 7 12t3 33v127h236v-111q0 -63 -16.5 -109.5t-42 -80t-57.5 -58t-64 -43.5q-14 -10 -28.5 -17t-27.5 -16q-31 -20 -43 -32q-16 -14 -25.5 -32.5t-9.5 -47.5q0 -55 46.5 -88t136.5 -33 q51 0 89 10.5t63.5 38t37.5 78.5t12 133h236q0 -131 -33 -222t-91 -147.5t-137 -81t-171 -24.5q-82 0 -159 18.5t-136 58.5t-95 102.5t-36 152.5zM348 487v295h244v-295h-244z" />
<glyph unicode="&#xc0;" horiz-adv-x="1404" d="M-115 -27l717 1528h201l717 -1528h-269l-207 447h-684l-206 -447h-269zM414 1698h321l246 -262h-270zM465 643h475l-238 506z" />
<glyph unicode="&#xc1;" horiz-adv-x="1404" d="M-115 -27l717 1528h201l717 -1528h-269l-207 447h-684l-206 -447h-269zM438 1436l215 262h305l-262 -262h-258zM465 643h475l-238 506z" />
<glyph unicode="&#xc2;" horiz-adv-x="1404" d="M-115 -27l717 1534h201l717 -1534h-269l-207 449h-684l-206 -449h-269zM166 1442l452 422h168l453 -422h-317l-220 194l-219 -194h-317zM465 645h475l-238 510z" />
<glyph unicode="&#xc3;" horiz-adv-x="1404" d="M-115 -27l717 1532h201l717 -1532h-269l-207 449h-684l-206 -449h-269zM289 1485q12 139 78.5 227t181.5 88q61 0 111.5 -19.5t91.5 -41.5q43 -23 67.5 -33t44.5 -10q10 0 12.5 2t6.5 6t5 9t5 13q4 10 7 23.5t13 50.5h207q-14 -104 -31.5 -154t-48.5 -85t-72.5 -55.5 t-97.5 -20.5q-66 0 -115.5 18.5t-92.5 40.5q-20 10 -37 19.5t-33 15.5q-31 10 -47 10q-4 0 -9.5 -2t-11.5 -12t-12 -31.5t-8 -58.5h-215zM465 645h475l-238 508z" />
<glyph unicode="&#xc4;" horiz-adv-x="1404" d="M-115 -27l717 1532h201l717 -1532h-269l-207 449h-684l-206 -449h-269zM387 1450v350h236v-350h-236zM465 645h475l-238 508zM782 1450v350h236v-350h-236z" />
<glyph unicode="&#xc5;" horiz-adv-x="1404" d="M-115 -27l717 1538h201l717 -1538h-269l-207 451h-684l-206 -451h-269zM426 1683q0 57 21.5 109.5t58.5 92.5t87 63.5t109 23.5t109.5 -23.5t87.5 -63.5t58.5 -92t21.5 -110q0 -57 -21.5 -109t-58.5 -91t-87.5 -62.5t-109.5 -23.5t-109 23.5t-87 62.5t-58.5 91t-21.5 109 zM465 647h475l-238 510zM637 1683q0 -35 20.5 -54t44.5 -19q25 0 45.5 19.5t20.5 53.5q0 37 -20.5 56.5t-45.5 19.5t-45 -19.5t-20 -56.5z" />
<glyph unicode="&#xc6;" horiz-adv-x="2162" d="M-180 -27l1024 1516h1321v-221h-944v-400h903v-221h-903v-450h956v-224h-1200v496h-535l-331 -496h-291zM590 688h387v576z" />
<glyph unicode="&#xc7;" horiz-adv-x="1630" d="M8 723q0 137 49 278.5t150.5 257t258.5 189.5t372 74q137 0 260 -34t222 -107.5t172 -190.5t112 -281h-248q-29 106 -78 180t-116.5 120t-149.5 67.5t-174 21.5q-135 0 -244 -46t-184.5 -123.5t-116.5 -182t-41 -223.5t37 -223.5t110.5 -183t183 -124t255.5 -45.5 q209 0 351 118t187 364h242q-18 -139 -72.5 -263t-146.5 -219.5t-222 -155t-296 -65.5l-7 -6l-36 80h28q33 0 75 -9t80 -31.5t63.5 -60.5t25.5 -94q0 -68 -33 -110.5t-79 -67t-96 -34t-87 -9.5q-59 0 -136 15.5t-181 46.5l71 196q68 -25 114 -38t75 -17q10 -2 18 -2h17h32 h17.5t17.5 4q6 2 12.5 3t6.5 7q0 14 -15.5 7t-27.5 -7q-23 0 -39.5 -1t-38.5 -11q-16 -4 -53 -25l-125 111l59 70q-139 27 -255 92t-200 164.5t-130 231.5t-46 292z" />
<glyph unicode="&#xc8;" horiz-adv-x="1327" d="M72 -27v1528h1257v-223h-1016v-404h975v-223h-975v-454h1028v-224h-1269zM375 1698h321l246 -262h-270z" />
<glyph unicode="&#xc9;" horiz-adv-x="1327" d="M72 -27v1528h1257v-223h-1016v-404h975v-223h-975v-454h1028v-224h-1269zM399 1436l215 262h306l-263 -262h-258z" />
<glyph unicode="&#xca;" horiz-adv-x="1327" d="M72 -27v1534h1257v-223h-1016v-405h975v-224h-975v-456h1028v-226h-1269zM127 1442l453 422h168l452 -422h-317l-219 194l-220 -194h-317z" />
<glyph unicode="&#xcb;" horiz-adv-x="1327" d="M72 -27v1532h1257v-223h-1016v-405h975v-224h-975v-454h1028v-226h-1269zM348 1450v350h236v-350h-236zM743 1450v350h236v-350h-236z" />
<glyph unicode="&#xcc;" horiz-adv-x="339" d="M-119 1698h322l246 -262h-271zM70 -27v1528h237v-1528h-237z" />
<glyph unicode="&#xcd;" horiz-adv-x="339" d="M-94 1436l215 262h305l-262 -262h-258zM70 -27v1528h237v-1528h-237z" />
<glyph unicode="&#xce;" horiz-adv-x="339" d="M-367 1442l453 422h168l453 -422h-318l-219 194l-219 -194h-318zM70 -27v1534h237v-1534h-237z" />
<glyph unicode="&#xcf;" horiz-adv-x="339" d="M-145 1450v350h235v-350h-235zM70 -27v1532h237v-1532h-237zM250 1450v350h235v-350h-235z" />
<glyph unicode="&#xd0;" horiz-adv-x="1554" d="M-51 647v221h119v621h737q139 0 267 -38t226.5 -126t156.5 -233.5t58 -360.5q0 -160 -44 -299t-133 -240.5t-226.5 -160t-321.5 -58.5h-720v674h-119zM311 197h496q98 0 183 28.5t146.5 93t97.5 166t36 246.5q0 150 -35 252t-99.5 165.5t-153.5 91.5t-198 28h-473v-400 h527v-221h-527v-450z" />
<glyph unicode="&#xd1;" horiz-adv-x="1554" d="M72 -27v1532h227l942 -1130v1130h242v-1532h-228l-942 1131v-1131h-241zM365 1485q12 139 78.5 227t181.5 88q61 0 111 -19.5t91 -41.5q43 -23 68 -33t45 -10q10 0 12 2l6 6t5.5 9t5.5 13q4 10 7 23.5t13 50.5h207q-14 -104 -31.5 -154t-48.5 -85t-73 -55.5t-97 -20.5 q-66 0 -116 18.5t-93 40.5q-20 10 -36.5 19.5t-32.5 15.5q-31 10 -47 10q-4 0 -9.5 -2t-11.5 -12t-12 -31.5t-8 -58.5h-215z" />
<glyph unicode="&#xd2;" horiz-adv-x="1671" d="M8 735q0 74 17.5 161t56.5 176t102.5 172t155.5 146.5t215 102.5t281 39t280.5 -39t214.5 -102.5t155.5 -146.5t102.5 -172t56.5 -176t17.5 -161t-17.5 -161t-56.5 -175t-102.5 -171t-155.5 -146.5t-214.5 -102t-280.5 -38.5t-281 38.5t-215 102t-155.5 146.5t-102.5 171 t-56.5 176.5t-17.5 159.5zM252 735q0 -111 39 -213t112.5 -182t182 -127t250.5 -47q141 0 249.5 47t182 127t112.5 182.5t39 212.5q0 113 -39 216.5t-112.5 183t-182 127t-249.5 47.5t-250 -47.5t-182.5 -127t-112.5 -183t-39 -216.5zM547 1698h321l246 -264h-270z" />
<glyph unicode="&#xd3;" horiz-adv-x="1671" d="M8 735q0 74 17.5 161t56.5 176t102.5 172t155.5 146.5t215 102.5t281 39t280.5 -39t214.5 -102.5t155.5 -146.5t102.5 -172t56.5 -176t17.5 -161t-17.5 -161t-56.5 -175t-102.5 -171t-155.5 -146.5t-214.5 -102t-280.5 -38.5t-281 38.5t-215 102t-155.5 146.5t-102.5 171 t-56.5 176.5t-17.5 159.5zM252 735q0 -111 39 -213t112.5 -182t182 -127t250.5 -47q141 0 249.5 47t182 127t112.5 182.5t39 212.5q0 113 -39 216.5t-112.5 183t-182 127t-249.5 47.5t-250 -47.5t-182.5 -127t-112.5 -183t-39 -216.5zM571 1434l215 264h306l-263 -264h-258z " />
<glyph unicode="&#xd4;" horiz-adv-x="1671" d="M8 739q0 74 17.5 161t56.5 176t102.5 172t155.5 147.5t215 103.5t281 39t280.5 -39t214.5 -103.5t155.5 -147.5t102.5 -172t56.5 -176t17.5 -161t-17.5 -160.5t-56.5 -176t-102.5 -172.5t-155.5 -147.5t-214.5 -103t-280.5 -38.5t-281 38.5t-215 103t-155.5 147.5 t-102.5 172.5t-56.5 176.5t-17.5 160zM252 739q0 -111 39 -214t112.5 -183t182 -128t250.5 -48q141 0 249.5 48t182 128t112.5 183.5t39 213.5q0 113 -39 217.5t-112.5 184.5t-182 127t-249.5 47t-250 -47t-182.5 -127t-112.5 -184.5t-39 -217.5zM299 1442l453 422h168 l452 -422h-317l-219 194l-220 -194h-317z" />
<glyph unicode="&#xd5;" horiz-adv-x="1671" d="M8 739q0 72 17.5 160t56.5 176t102.5 171t155.5 147.5t215 103.5t281 39t280.5 -39t214.5 -103.5t155.5 -147.5t102.5 -171t56.5 -175t17.5 -161t-17.5 -160.5t-56.5 -176t-102.5 -172.5t-155.5 -147.5t-214.5 -103t-280.5 -38.5t-281 38.5t-215 103t-155.5 147.5 t-102.5 172.5t-56.5 176.5t-17.5 160zM252 739q0 -113 39 -216t112.5 -183t182 -127t250.5 -47q141 0 249.5 47t182 127t112.5 183.5t39 215.5q0 113 -39 216.5t-112.5 183.5t-182 127t-249.5 47t-250 -47t-182.5 -127t-112.5 -183.5t-39 -216.5zM422 1485q12 137 78.5 226 t181.5 89q61 0 111.5 -19.5t91.5 -41.5q43 -23 67.5 -33t44.5 -10q10 0 12.5 2t6.5 6t5 9t5 13q4 10 7 23.5t14 50.5h206q-14 -104 -31 -154t-48 -85t-73 -55.5t-97 -20.5q-66 0 -116 18.5t-93 40.5q-37 20 -70 35q-31 10 -47 10q-4 0 -9 -2t-11.5 -12t-12.5 -31.5t-8 -58.5 h-215z" />
<glyph unicode="&#xd6;" horiz-adv-x="1671" d="M8 739q0 72 17.5 160t56.5 176t102.5 171t155.5 147.5t215 103.5t281 39t280.5 -39t214.5 -103.5t155.5 -147.5t102.5 -171t56.5 -175t17.5 -161t-17.5 -160.5t-56.5 -176t-102.5 -172.5t-155.5 -147.5t-214.5 -103t-280.5 -38.5t-281 38.5t-215 103t-155.5 147.5 t-102.5 172.5t-56.5 176.5t-17.5 160zM252 739q0 -113 39 -216t112.5 -183t182 -127t250.5 -47q141 0 249.5 47t182 127t112.5 183.5t39 215.5q0 113 -39 216.5t-112.5 183.5t-182 127t-249.5 47t-250 -47t-182.5 -127t-112.5 -183.5t-39 -216.5zM520 1448v352h236v-352 h-236zM915 1448v352h236v-352h-236z" />
<glyph unicode="&#xd7;" horiz-adv-x="860" d="M16 119l260 243l-260 246l154 148l260 -246l258 246l156 -146l-260 -248l260 -243l-156 -148l-258 244l-260 -244z" />
<glyph unicode="&#xd8;" horiz-adv-x="1671" d="M-14 55l188 185q-94 119 -130 250t-36 241q0 72 17.5 159t56.5 175t102.5 170t155.5 146.5t215 102.5t281 38q166 0 289.5 -41t220.5 -113l190 184l150 -145l-191 -184q92 -121 130 -251t38 -241q0 -74 -17.5 -160t-56.5 -174t-102.5 -170t-155.5 -146.5t-215 -102 t-280 -37.5q-166 0 -290 39.5t-220 111.5l-191 -182zM252 731q0 -92 23.5 -175t72.5 -150l828 798q-68 45 -152 70.5t-188 25.5q-141 0 -250 -47t-182.5 -125.5t-112.5 -182t-39 -214.5zM496 258q66 -45 150.5 -69.5t189.5 -24.5q141 0 249.5 47t182 126t112.5 181.5 t39 212.5q0 90 -23.5 173t-72.5 155z" />
<glyph unicode="&#xd9;" horiz-adv-x="1515" d="M59 555v946h242v-942q0 -96 22.5 -169t76 -123t141.5 -75.5t217 -25.5t217 25.5t141 75.5t75.5 123t22.5 169v942h242v-946q0 -309 -178 -461.5t-520 -152.5t-520.5 152.5t-178.5 461.5zM469 1698h322l245 -264h-270z" />
<glyph unicode="&#xda;" horiz-adv-x="1515" d="M59 555v946h242v-942q0 -96 22.5 -169t76 -123t141.5 -75.5t217 -25.5t217 25.5t141 75.5t75.5 123t22.5 169v942h242v-946q0 -309 -178 -461.5t-520 -152.5t-520.5 152.5t-178.5 461.5zM494 1434l215 264h305l-262 -264h-258z" />
<glyph unicode="&#xdb;" horiz-adv-x="1515" d="M59 559v948h242v-944q0 -96 22.5 -170t76 -125t141.5 -76.5t217 -25.5t217 25.5t141 76.5t75.5 125t22.5 170v944h242v-948q0 -311 -178 -464.5t-520 -153.5t-520.5 153.5t-178.5 464.5zM221 1442l453 422h168l452 -422h-317l-219 194l-219 -194h-318z" />
<glyph unicode="&#xdc;" horiz-adv-x="1515" d="M59 557v948h242v-944q0 -96 22.5 -169t76 -124t141.5 -76.5t217 -25.5t217 25.5t141 76.5t75.5 124t22.5 169v944h242v-948q0 -309 -178 -462.5t-520 -153.5t-520.5 153.5t-178.5 462.5zM442 1448v352h236v-352h-236zM838 1448v352h235v-352h-235z" />
<glyph unicode="&#xdd;" horiz-adv-x="1368" d="M-172 1501h319l537 -674l549 674h307l-735 -899v-629h-242v629zM420 1436l215 262h305l-262 -262h-258z" />
<glyph unicode="&#xde;" horiz-adv-x="1366" d="M72 -27v1516h241v-289h566q80 0 169 -18.5t162.5 -68.5t121.5 -138t48 -227q0 -100 -31.5 -184.5t-96 -145t-161 -94t-227.5 -33.5h-551v-318h-241zM313 510h549q57 0 107.5 11t88.5 38t59.5 73t21.5 113q0 86 -29 134.5t-73 71t-96 26.5t-99 4h-529v-471z" />
<glyph unicode="&#xdf;" horiz-adv-x="1214" d="M63 -29v1078q0 125 40 213t111 145t167 84t211 27q104 0 202.5 -19.5t176.5 -68t125 -127t47 -197.5q0 -70 -30 -146.5t-105 -136.5q104 -57 154 -158.5t50 -226.5q0 -98 -34.5 -187t-102 -154.5t-169 -104.5t-236.5 -39q-59 0 -111.5 8t-118.5 39v221q43 -14 76 -22.5 t59.5 -13.5t50 -7t50.5 -2q61 0 114.5 13.5t93.5 45t63.5 86t23.5 136.5q0 125 -84 181t-275 56h-149v221h135q164 0 233.5 50.5t69.5 140.5q0 20 -8 53t-38 63.5t-89 52t-164 21.5q-88 0 -145.5 -17t-91 -49t-47 -77t-13.5 -102v-1080h-242z" />
<glyph unicode="&#xe0;" horiz-adv-x="1214" d="M2 305q0 98 41 162.5t105.5 103.5t144.5 57.5t158 22.5l352 23q31 2 47 5t24.5 9t9.5 19.5t1 35.5q0 27 -7.5 53.5t-37 48t-89 34t-163.5 12.5q-78 0 -130 -9.5t-86 -33t-52.5 -60t-28.5 -92.5h-246q23 119 67 199t111.5 127t158.5 66.5t208 19.5q111 0 208 -15.5 t169.5 -55.5t115.5 -108.5t43 -174.5v-541q0 -10 1 -21.5t1 -21.5q14 2 47 10t107 33v-225q-68 -20 -106.5 -27.5t-79.5 -7.5q-82 0 -123 30.5t-58 79.5q-53 -41 -111.5 -65.5t-115.5 -36.5t-108.5 -16t-90.5 -4q-27 0 -72.5 2t-100 13t-110.5 34.5t-101.5 63.5t-74 101.5 t-28.5 149.5zM258 1407h322l245 -260h-270zM260 305q0 -51 25.5 -79.5t63.5 -43t82 -17.5t81 -3q74 0 144.5 15.5t125 45t87 76t32.5 107.5v67q-20 -4 -39.5 -6t-42.5 -4l-340 -23q-125 -8 -172 -41.5t-47 -93.5z" />
<glyph unicode="&#xe1;" horiz-adv-x="1214" d="M2 305q0 98 41 162.5t105.5 103.5t144.5 57.5t158 22.5l352 23q31 2 47 5t24.5 9t9.5 19.5t1 35.5q0 27 -7.5 53.5t-37 48t-89 34t-163.5 12.5q-78 0 -130 -9.5t-86 -33t-52.5 -60t-28.5 -92.5h-246q23 119 67 199t111.5 127t158.5 66.5t208 19.5q111 0 208 -15.5 t169.5 -55.5t115.5 -108.5t43 -174.5v-541q0 -10 1 -21.5t1 -21.5q14 2 47 10t107 33v-225q-68 -20 -106.5 -27.5t-79.5 -7.5q-82 0 -123 30.5t-58 79.5q-53 -41 -111.5 -65.5t-115.5 -36.5t-108.5 -16t-90.5 -4q-27 0 -72.5 2t-100 13t-110.5 34.5t-101.5 63.5t-74 101.5 t-28.5 149.5zM260 305q0 -51 25.5 -79.5t63.5 -43t82 -17.5t81 -3q74 0 144.5 15.5t125 45t87 76t32.5 107.5v67q-20 -4 -39.5 -6t-42.5 -4l-340 -23q-125 -8 -172 -41.5t-47 -93.5zM422 1161l213 260h305l-262 -260h-256z" />
<glyph unicode="&#xe2;" horiz-adv-x="1214" d="M2 305q0 98 41 162.5t105.5 103.5t144.5 57.5t158 22.5l352 23q31 2 47 5t24.5 9t9.5 19.5t1 35.5q0 27 -7.5 53.5t-37 48t-89 34t-163.5 12.5q-78 0 -130 -9.5t-86 -33t-52.5 -60t-28.5 -92.5h-246q23 119 67 199t111.5 127t158.5 66.5t208 19.5q111 0 208 -15.5 t169.5 -55.5t115.5 -108.5t43 -174.5v-541q0 -10 1 -21.5t1 -21.5q14 2 47 10t107 33v-225q-68 -20 -106.5 -27.5t-79.5 -7.5q-82 0 -123 30.5t-58 79.5q-53 -41 -111.5 -65.5t-115.5 -36.5t-108.5 -16t-90.5 -4q-27 0 -72.5 2t-100 13t-110.5 34.5t-101.5 63.5t-74 101.5 t-28.5 149.5zM72 1155l448 410l172 8l453 -418h-318l-219 193l-219 -193h-317zM260 305q0 -51 25.5 -79.5t63.5 -43t82 -17.5t81 -3q74 0 144.5 15.5t125 45t87 76t32.5 107.5v67q-20 -4 -39.5 -6t-42.5 -4l-340 -23q-125 -8 -172 -41.5t-47 -93.5z" />
<glyph unicode="&#xe3;" horiz-adv-x="1214" d="M2 305q0 98 41 162.5t105.5 103.5t144.5 57.5t158 22.5l352 23q31 2 47 5t24.5 9t9.5 19.5t1 35.5q0 27 -7.5 53.5t-37 48t-89 34t-163.5 12.5q-78 0 -130 -9.5t-86 -33t-52.5 -60t-28.5 -92.5h-246q23 119 67 199t111.5 127t158.5 66.5t208 19.5q111 0 208 -15.5 t169.5 -55.5t115.5 -108.5t43 -174.5v-541q0 -10 1 -21.5t1 -21.5q14 2 47 10t107 33v-225q-68 -20 -106.5 -27.5t-79.5 -7.5q-82 0 -123 30.5t-58 79.5q-53 -41 -111.5 -65.5t-115.5 -36.5t-108.5 -16t-90.5 -4q-27 0 -72.5 2t-100 13t-110.5 34.5t-101.5 63.5t-74 101.5 t-28.5 149.5zM195 1176q12 137 78.5 225t181.5 88q61 0 111 -19.5t91 -42.5q43 -23 68 -33t45 -10q10 0 12 3.5t6 7.5t5.5 9t5.5 13t7 21.5t13 50.5h207q-14 -102 -31.5 -152.5t-48.5 -83.5q-31 -35 -73 -56t-97 -21q-66 0 -116 18t-93 41q-20 10 -36.5 19.5t-32.5 15.5 q-31 10 -47 10q-4 0 -9.5 -2t-11.5 -12.5t-12 -32t-8 -57.5h-215zM260 305q0 -51 25.5 -79.5t63.5 -43t82 -17.5t81 -3q74 0 144.5 15.5t125 45t87 76t32.5 107.5v67q-20 -4 -39.5 -6t-42.5 -4l-340 -23q-125 -8 -172 -41.5t-47 -93.5z" />
<glyph unicode="&#xe4;" horiz-adv-x="1214" d="M2 305q0 98 41 162.5t105.5 103.5t144.5 57.5t158 22.5l352 23q31 2 47 5t24.5 9t9.5 19.5t1 35.5q0 27 -7.5 53.5t-37 48t-89 34t-163.5 12.5q-78 0 -130 -9.5t-86 -33t-52.5 -60t-28.5 -92.5h-246q23 119 67 199t111.5 127t158.5 66.5t208 19.5q111 0 208 -15.5 t169.5 -55.5t115.5 -108.5t43 -174.5v-541q0 -10 1 -21.5t1 -21.5q14 2 47 10t107 33v-225q-68 -20 -106.5 -27.5t-79.5 -7.5q-82 0 -123 30.5t-58 79.5q-53 -41 -111.5 -65.5t-115.5 -36.5t-108.5 -16t-90.5 -4q-27 0 -72.5 2t-100 13t-110.5 34.5t-101.5 63.5t-74 101.5 t-28.5 149.5zM260 305q0 -51 25.5 -79.5t63.5 -43t82 -17.5t81 -3q74 0 144.5 15.5t125 45t87 76t32.5 107.5v67q-20 -4 -39.5 -6t-42.5 -4l-340 -23q-125 -8 -172 -41.5t-47 -93.5zM293 1161v348h235v-348h-235zM688 1161v348h236v-348h-236z" />
<glyph unicode="&#xe5;" horiz-adv-x="1214" d="M2 305q0 98 41 162.5t105.5 103.5t144.5 57.5t158 22.5l352 23q31 2 47 5t24.5 9t9.5 19.5t1 35.5q0 27 -7.5 53.5t-37 48t-89 34t-163.5 12.5q-78 0 -130 -9.5t-86 -33t-52.5 -60t-28.5 -92.5h-246q23 119 67 199t111.5 127t158.5 66.5t208 19.5q111 0 208 -15.5 t169.5 -55.5t115.5 -108.5t43 -174.5v-541q0 -10 1 -21.5t1 -21.5q14 2 47 10t107 33v-225q-68 -20 -106.5 -27.5t-79.5 -7.5q-82 0 -123 30.5t-58 79.5q-53 -41 -111.5 -65.5t-115.5 -36.5t-108.5 -16t-90.5 -4q-27 0 -72.5 2t-100 13t-110.5 34.5t-101.5 63.5t-74 101.5 t-28.5 149.5zM260 305q0 -51 25.5 -79.5t63.5 -43t82 -17.5t81 -3q74 0 144.5 15.5t125 45t87 76t32.5 107.5v67q-20 -4 -39.5 -6t-42.5 -4l-340 -23q-125 -8 -172 -41.5t-47 -93.5zM332 1436q0 57 21.5 109t58.5 91t87 62.5t109 23.5t109.5 -23.5t87.5 -62.5t58.5 -91 t21.5 -109t-21.5 -108.5t-58.5 -90.5t-87.5 -61.5t-109.5 -22.5t-109 22.5t-87 61.5t-58.5 90t-21.5 109zM543 1436q0 -35 20.5 -53.5t44.5 -18.5q25 0 45.5 18.5t20.5 53.5q0 37 -20.5 56t-45.5 19t-45 -19t-20 -56z" />
<glyph unicode="&#xe6;" horiz-adv-x="2160" d="M2 305q0 98 42 164t108.5 104.5t147.5 56t159 21.5l356 23q31 2 48.5 5t25.5 10t10 19.5t2 34.5q0 27 -7 53.5t-38 47t-91 34t-167 13.5q-90 0 -146.5 -12.5t-90 -41t-51 -76.5t-27.5 -122h-244q18 137 60 227t112 144.5t166 76t223 21.5q68 0 136.5 -6t133 -23.5 t118.5 -51.5t91 -89q80 84 198 127t261 43q152 0 269.5 -48t198.5 -135t125 -211t46 -278h-1036q27 -123 126 -199.5t279 -76.5q109 0 171.5 24.5t99.5 59.5q18 16 31.5 34.5t25.5 38.5q12 23 23.5 46.5t31.5 70.5h248q-49 -137 -112.5 -231t-143.5 -152.5t-176 -84 t-209 -25.5q-68 0 -138.5 10t-138 34.5t-128 65.5t-107.5 103q-78 -102 -212 -157.5t-314 -55.5q-27 0 -74 2t-102.5 13t-112.5 34.5t-103.5 63.5t-75 101.5t-28.5 149.5zM246 305q0 -51 26.5 -80.5t65.5 -44t84 -17.5t82 -3q76 0 147.5 15t127 45t89 76t33.5 107v68 q-20 -4 -41.5 -6t-44.5 -4l-346 -23q-127 -10 -175 -41.5t-48 -91.5zM1155 653h748q-41 123 -142.5 180.5t-232.5 57.5q-147 0 -239.5 -62.5t-133.5 -175.5z" />
<glyph unicode="&#xe7;" d="M2 504q0 147 52 260t140.5 189.5t205 115.5t245.5 39q123 0 229.5 -35t185.5 -97.5t126 -151.5t53 -199h-240q-4 51 -29.5 99t-70.5 84t-108.5 57.5t-145.5 21.5q-102 0 -177 -32t-125 -84t-74.5 -121.5t-24.5 -145.5q0 -51 19.5 -114.5t66.5 -119t123.5 -92.5t191.5 -37 q68 0 127 15.5t108.5 51.5t86.5 92t55 138h244q-29 -137 -84.5 -232t-131 -156.5t-168 -91.5t-190.5 -36l-8 -8l-37 82h31q33 0 75 -9.5t78.5 -32t62.5 -59t26 -92.5q0 -68 -33 -109.5t-79 -66t-96 -34t-85 -9.5q-57 0 -134 15.5t-182 46.5l72 192q68 -23 114 -36t74 -17 q10 -2 18.5 -2h14.5t14.5 -1t18.5 -1q8 2 17.5 2t17.5 2l12 4t6 8q0 14 -15.5 7t-27.5 -7q-23 0 -39 -2t-37 -10q-10 -4 -23 -10t-30 -15l-125 109l62 74q-102 25 -185.5 76t-142.5 123.5t-92 164.5t-33 197z" />
<glyph unicode="&#xe8;" d="M2 532q0 84 30.5 184.5t104.5 187.5t197 145.5t305 58.5q150 0 266.5 -48t196.5 -135t122 -211t44 -278h-1016q25 -125 123 -200.5t272 -75.5q106 0 168 24.5t98 59.5q12 12 28.5 33.5t30 42t21.5 36t6 15.5h244q2 6 4 8t-2 -8q-47 -119 -108.5 -201t-137 -133 t-166 -73.5t-196.5 -22.5q-145 0 -262 42t-200 118.5t-128 186t-45 244.5zM264 653h733q-41 123 -140 180.5t-228 57.5q-143 0 -233.5 -62.5t-131.5 -175.5zM299 1421h324l245 -260h-272z" />
<glyph unicode="&#xe9;" d="M2 532q0 84 30.5 184.5t104.5 187.5t197 145.5t305 58.5q150 0 266.5 -48t196.5 -135t122 -211t44 -278h-1016q25 -125 123 -200.5t272 -75.5q106 0 168 24.5t98 59.5q12 12 28.5 33.5t30 42t21.5 36t6 15.5h244q2 6 4 8t-2 -8q-47 -119 -108.5 -201t-137 -133 t-166 -73.5t-196.5 -22.5q-145 0 -262 42t-200 118.5t-128 186t-45 244.5zM264 653h733q-41 123 -140 180.5t-228 57.5q-143 0 -233.5 -62.5t-131.5 -175.5zM444 1147l215 260h306l-263 -260h-258z" />
<glyph unicode="&#xea;" d="M2 532q0 84 30.5 184.5t104.5 187.5t197 145.5t305 58.5q150 0 266.5 -48t196.5 -135t122 -211t44 -278h-1016q25 -125 123 -200.5t272 -75.5q106 0 168 24.5t98 59.5q12 12 28.5 33.5t30 42t21.5 36t6 15.5h244q2 6 4 8t-2 -8q-47 -119 -108.5 -201t-137 -133 t-166 -73.5t-196.5 -22.5q-145 0 -262 42t-200 118.5t-128 186t-45 244.5zM90 1155l453 418h168l452 -418h-317l-219 193l-219 -193h-318zM264 653h733q-41 123 -140 180.5t-228 57.5q-143 0 -233.5 -62.5t-131.5 -175.5z" />
<glyph unicode="&#xeb;" d="M2 532q0 84 30.5 184.5t104.5 187.5t197 145.5t305 58.5q150 0 266.5 -48t196.5 -135t122 -211t44 -278h-1016q25 -125 123 -200.5t272 -75.5q106 0 168 24.5t98 59.5q12 12 28.5 33.5t30 42t21.5 36t6 15.5h244q2 6 4 8t-2 -8q-47 -119 -108.5 -201t-137 -133 t-166 -73.5t-196.5 -22.5q-145 0 -262 42t-200 118.5t-128 186t-45 244.5zM264 653h733q-41 123 -140 180.5t-228 57.5q-143 0 -233.5 -62.5t-131.5 -175.5zM311 1161v348h236v-348h-236zM707 1161v348h235v-348h-235z" />
<glyph unicode="&#xec;" horiz-adv-x="339" d="M-217 1413h323l246 -260h-272zM57 -27v1123h238v-1123h-238z" />
<glyph unicode="&#xed;" horiz-adv-x="339" d="M-12 1133l202 253l318 7l-262 -260h-258zM57 -27v1123h238v-1123h-238z" />
<glyph unicode="&#xee;" horiz-adv-x="339" d="M-367 1155l453 418h168l453 -418h-318l-219 193l-219 -193h-318zM57 -27v1131h238v-1131h-238z" />
<glyph unicode="&#xef;" horiz-adv-x="339" d="M-145 1163v346h235v-346h-235zM57 -27v1127h238v-1127h-238zM250 1163v346h235v-346h-235z" />
<glyph unicode="&#xf0;" horiz-adv-x="1290" d="M2 539q0 117 43 224t123 190t194.5 132.5t260.5 49.5q51 0 100 -5.5t96 -17.5q-47 45 -102 84t-127 73t-163 65.5t-208 62.5l162 180q201 -49 367.5 -141.5t286.5 -222.5t186.5 -294.5t66.5 -357.5q0 -133 -44 -246.5t-127 -196.5t-201.5 -130t-270.5 -47t-270.5 49 t-201.5 131t-127 190.5t-44 227.5zM244 539q0 -72 24.5 -139.5t73.5 -120t125 -84t178 -31.5t178 31.5t125 84t74 120t25 139.5q0 70 -25 137t-75 120.5t-126 85t-176 31.5q-102 0 -177 -31.5t-125 -85t-74.5 -121t-24.5 -136.5zM260 1245l690 338l156 -149l-660 -324z" />
<glyph unicode="&#xf1;" d="M63 -27v1127h242v-74q63 47 149.5 75.5t198.5 28.5q133 0 224.5 -26.5t150.5 -69.5t91 -97t47.5 -107.5t18.5 -100.5t3 -78v-678h-242v674q0 63 -11 112.5t-43 83.5t-90.5 51t-150.5 17q-94 0 -159.5 -24.5t-107.5 -66.5t-60.5 -94t-18.5 -108v-645h-242zM213 1176 q12 137 78.5 225t181.5 88q61 0 111.5 -19.5t91.5 -42.5q43 -23 67.5 -33t44.5 -10q10 0 12.5 3.5t6.5 7.5t5 9t5 13q4 10 7 22.5t14 49.5h206q-14 -102 -31 -152.5t-48 -83.5q-31 -35 -73 -56t-97 -21q-66 0 -116 19t-93 42l-37 18.5t-33 14.5q-31 10 -47 10q-4 0 -9 -2 t-11.5 -12.5t-12.5 -32t-8 -57.5h-215z" />
<glyph unicode="&#xf2;" horiz-adv-x="1290" d="M2 532q0 117 44 223.5t127 188.5t202 131t270 49q152 0 270.5 -49t201.5 -131t127 -188.5t44 -223.5t-44 -224t-127 -189t-201.5 -130t-270.5 -48t-270.5 48t-201.5 130t-127 189.5t-44 223.5zM244 532q0 -72 24.5 -138t73.5 -117.5t125 -83t178 -31.5t178 31.5t125 83 t74 118t25 137.5q0 70 -25 137.5t-75 120t-126 84t-176 31.5q-102 0 -177 -31.5t-125 -84t-74.5 -120t-24.5 -137.5zM330 1425l332 2l245 -260h-270z" />
<glyph unicode="&#xf3;" horiz-adv-x="1290" d="M2 532q0 117 44 223.5t127 188.5t202 131t270 49q152 0 270.5 -49t201.5 -131t127 -188.5t44 -223.5t-44 -224t-127 -189t-201.5 -130t-270.5 -48t-270.5 48t-201.5 130t-127 189.5t-44 223.5zM244 532q0 -72 24.5 -138t73.5 -117.5t125 -83t178 -31.5t178 31.5t125 83 t74 118t25 137.5q0 70 -25 137.5t-75 120t-126 84t-176 31.5q-102 0 -177 -31.5t-125 -84t-74.5 -120t-24.5 -137.5zM504 1167l215 260h305l-262 -260h-258z" />
<glyph unicode="&#xf4;" horiz-adv-x="1290" d="M2 537q0 117 44 224t127 190t202 133.5t270 50.5q152 0 270.5 -50.5t201.5 -133.5t127 -190.5t44 -223.5q0 -119 -44 -226.5t-127 -189.5t-201.5 -131t-270.5 -49t-270.5 49t-201.5 131t-127 189.5t-44 226.5zM109 1176l452 417h168l453 -417h-318l-219 192l-219 -192 h-317zM244 537q0 -72 24.5 -138.5t73.5 -119t125 -84t178 -31.5t178 31.5t125 84t74 119t25 138.5q0 70 -25 137t-75 120.5t-126 85t-176 31.5q-102 0 -177 -31.5t-125 -85t-74.5 -121t-24.5 -136.5z" />
<glyph unicode="&#xf5;" horiz-adv-x="1290" d="M2 537q0 117 44 223t127 189t202 132t270 49q152 0 270.5 -49t201.5 -132t127 -189.5t44 -222.5q0 -119 -44 -227.5t-127 -190.5t-201.5 -130t-270.5 -48t-270.5 48t-201.5 130t-127 190.5t-44 227.5zM231 1217q12 137 79 225t182 88q61 0 111 -19.5t91 -42.5 q43 -23 67.5 -33t45.5 -10q10 0 12 3.5t6 7.5t5 9t6 13q4 8 7 21.5t13 50.5h207q-14 -102 -31.5 -152.5t-48.5 -83.5q-31 -35 -73 -56t-97 -21q-66 0 -116 18t-93 41q-20 10 -36.5 19.5t-32.5 15.5q-31 10 -48 10q-4 0 -9 -2t-11 -12.5t-12 -32t-9 -57.5h-215zM244 537 q0 -72 24.5 -138.5t73.5 -119t125 -84t178 -31.5t178 31.5t125 84t74 119t25 138.5q0 70 -25 137t-75 119.5t-126 84t-176 31.5q-102 0 -177 -31.5t-125 -84t-74.5 -120t-24.5 -136.5z" />
<glyph unicode="&#xf6;" horiz-adv-x="1290" d="M2 537q0 117 44 223t127 189t202 132t270 49q152 0 270.5 -49t201.5 -132t127 -189.5t44 -222.5q0 -119 -44 -227.5t-127 -190.5t-201.5 -130t-270.5 -48t-270.5 48t-201.5 130t-127 190.5t-44 227.5zM244 537q0 -72 24.5 -138.5t73.5 -119t125 -84t178 -31.5t178 31.5 t125 84t74 119t25 138.5q0 70 -25 137t-75 119.5t-126 84t-176 31.5q-102 0 -177 -31.5t-125 -84t-74.5 -120t-24.5 -136.5zM330 1182v348h235v-348h-235zM725 1182v348h236v-348h-236z" />
<glyph unicode="&#xf7;" horiz-adv-x="1228" d="M45 412v215h1139v-215h-1139zM436 143q0 68 50.5 119t127.5 51q78 0 128.5 -51t50.5 -119t-50.5 -119t-128.5 -51t-128 51.5t-50 118.5zM436 893q0 68 50.5 119t127.5 51q78 0 128.5 -51t50.5 -119q0 -70 -50.5 -119t-128.5 -49t-128 49t-50 119z" />
<glyph unicode="&#xf8;" horiz-adv-x="1290" d="M-23 43l144 131q-119 150 -119 350q0 115 44 220.5t127 187.5t202 130t270 48q111 0 206 -26.5t173 -75.5l150 137l139 -139l-144 -132q119 -150 119 -350q0 -117 -44 -223t-127 -186t-201.5 -128t-270.5 -48q-117 0 -210 26.5t-169 75.5l-149 -137zM244 524 q0 -106 51 -190l557 514q-41 23 -91 34t-116 11q-102 0 -177 -32t-125 -84t-74.5 -117.5t-24.5 -135.5zM438 201q41 -20 91.5 -31.5t115.5 -11.5q102 0 178 30.5t125 82t74 118t25 135.5q-1 107 -52 191z" />
<glyph unicode="&#xf9;" d="M63 418v678h242v-674q0 -61 11.5 -110.5t43 -82t90 -50t150.5 -17.5q94 0 159.5 24.5t107.5 65.5t60.5 92t18.5 107v645h242v-1125h-242v74q-63 -47 -150 -75.5t-198 -28.5q-133 0 -224 26.5t-150.5 69.5t-91.5 96t-47 106.5t-18.5 100.5t-3.5 78zM256 1366h322l245 -260 h-270z" />
<glyph unicode="&#xfa;" d="M63 418v678h242v-674q0 -61 11.5 -110.5t43 -82t90 -50t150.5 -17.5q94 0 159.5 24.5t107.5 65.5t60.5 92t18.5 107v645h242v-1125h-242v74q-63 -47 -150 -75.5t-198 -28.5q-133 0 -224 26.5t-150.5 69.5t-91.5 96t-47 106.5t-18.5 100.5t-3.5 78zM362 1106l216 260h305 l-262 -260h-259z" />
<glyph unicode="&#xfb;" d="M63 422v680h242v-676q0 -63 11.5 -111.5t43 -82t90 -51t150.5 -17.5q94 0 159.5 24.5t107.5 65.5t60.5 93t18.5 108v647h242v-1131h-242v76q-63 -47 -150 -76.5t-198 -29.5q-133 0 -224 26.5t-150.5 70.5t-91.5 97t-47 107.5t-18.5 101.5t-3.5 78zM90 1155l453 418h168 l452 -418h-317l-219 193l-219 -193h-318z" />
<glyph unicode="&#xfc;" d="M63 420v680h242v-676q0 -61 11.5 -110.5t43 -82t90 -50t150.5 -17.5q94 0 159.5 24.5t107.5 65.5t60.5 92t18.5 107v647h242v-1129h-242v76q-63 -47 -150 -76.5t-198 -29.5q-133 0 -224 26.5t-150.5 70.5t-91.5 97t-47 106.5t-18.5 100.5t-3.5 78zM311 1161v348h236v-348 h-236zM707 1161v348h235v-348h-235z" />
<glyph unicode="&#xfd;" horiz-adv-x="1062" d="M-154 1096h310l352 -445l362 445h299l-542 -666v-457h-238v457zM268 1106l215 260h305l-262 -260h-258z" />
<glyph unicode="&#xfe;" horiz-adv-x="1290" d="M63 -440v1929h242v-475q66 51 159 81.5t214 30.5q152 0 265.5 -50t190 -135t115.5 -193.5t39 -225.5q0 -133 -47 -243.5t-129 -189.5t-193.5 -123t-240.5 -44q-123 0 -215 34t-158 85v-481h-242zM293 535q0 -113 36 -188t91 -119t122.5 -62.5t133.5 -18.5 q74 0 141.5 21.5t117.5 68t81 117t31 166.5q0 92 -28 164t-75 121t-113.5 73.5t-142.5 24.5q-119 0 -195.5 -36t-120.5 -90t-61.5 -118.5t-17.5 -123.5z" />
<glyph unicode="&#xff;" horiz-adv-x="1062" d="M-154 1100h310l352 -445l362 445h299l-542 -668v-459h-238v459zM217 1122v346h236v-346h-236zM612 1122v346h236v-346h-236z" />
<glyph unicode="&#x152;" horiz-adv-x="2390" d="M18 735q0 182 61.5 327.5t170 248t254 157t315.5 54.5q104 0 204.5 -19.5t193.5 -70.5v59h1175v-221h-932v-402h891v-221h-891v-452h944v-224h-1187v68q-92 -53 -192.5 -75.5t-205.5 -22.5q-182 0 -329.5 55t-252 157.5t-162 250t-57.5 331.5zM262 735q0 -113 30 -216 t97.5 -182t175 -126t262.5 -47q94 0 167 18.5t122 43t75 49t26 38.5v844q0 2 -21.5 25.5t-69 49t-121 47t-178.5 21.5q-137 0 -242.5 -41.5t-177 -116.5t-108.5 -179.5t-37 -227.5z" />
<glyph unicode="&#x153;" horiz-adv-x="2199" d="M2 524q0 127 45 234.5t127 185.5t195.5 121t251.5 43q156 0 283.5 -54.5t209.5 -166.5q88 117 211 169t264 52q152 0 264.5 -47t188.5 -135t114.5 -212t43.5 -278h-971q18 -135 110.5 -205.5t249.5 -70.5q147 0 236.5 57t134.5 207h244q-29 -129 -88.5 -220 t-139.5 -149.5t-179 -86t-208 -27.5q-139 0 -273 49t-218 162q-80 -111 -203 -161t-283 -50q-139 0 -251.5 43t-192.5 119.5t-123 184t-43 236.5zM246 524q0 -170 97 -267t278 -97q176 0 273 94t97 270q0 174 -95 270.5t-275 96.5t-277.5 -96.5t-97.5 -270.5zM1235 653h702 q-35 123 -118 180.5t-230 57.5q-70 0 -128 -19.5t-104 -52.5t-77 -76t-45 -90z" />
<glyph unicode="&#x178;" horiz-adv-x="1368" d="M-172 1505h319l537 -674l549 674h307l-735 -901v-631h-242v631zM369 1450v350h235v-350h-235zM764 1450v350h235v-350h-235z" />
<glyph unicode="&#x2c6;" horiz-adv-x="339" d="M-367 1190l453 342h168l453 -342h-318l-219 158l-219 -158h-318z" />
<glyph unicode="&#x2dc;" horiz-adv-x="339" d="M-244 1237q12 102 79 166.5t181 64.5q61 0 111.5 -14t91.5 -31q20 -8 35.5 -14t32.5 -10q25 -6 45 -6q10 0 12 1t6 5t10 16q4 6 7.5 16.5t13.5 36.5h207q-14 -78 -31.5 -113.5t-48.5 -60.5q-31 -27 -73 -42t-97 -15q-66 0 -116 14.5t-93 30.5q-20 6 -36.5 13.5 t-33.5 11.5q-29 6 -47 6q-6 0 -20.5 -10.5t-20.5 -65.5h-215z" />
<glyph unicode="&#x2000;" horiz-adv-x="986" />
<glyph unicode="&#x2001;" horiz-adv-x="1972" />
<glyph unicode="&#x2002;" horiz-adv-x="986" />
<glyph unicode="&#x2003;" horiz-adv-x="1972" />
<glyph unicode="&#x2004;" horiz-adv-x="657" />
<glyph unicode="&#x2005;" horiz-adv-x="493" />
<glyph unicode="&#x2006;" horiz-adv-x="328" />
<glyph unicode="&#x2007;" horiz-adv-x="328" />
<glyph unicode="&#x2008;" horiz-adv-x="246" />
<glyph unicode="&#x2009;" horiz-adv-x="394" />
<glyph unicode="&#x200a;" horiz-adv-x="109" />
<glyph unicode="&#x2010;" horiz-adv-x="833" d="M102 481v146h629v-146h-629z" />
<glyph unicode="&#x2011;" horiz-adv-x="833" d="M102 481v146h629v-146h-629z" />
<glyph unicode="&#x2012;" horiz-adv-x="833" d="M102 481v146h629v-146h-629z" />
<glyph unicode="&#x2013;" horiz-adv-x="1024" d="M-51 494v120h1126v-120h-1126z" />
<glyph unicode="&#x2014;" horiz-adv-x="2048" d="M-51 494v120h2150v-120h-2150z" />
<glyph unicode="&#x2018;" horiz-adv-x="454" d="M123 967v235q0 43 8 85t33.5 84t75 83t129.5 78v-203q-35 -16 -45.5 -36.5t-10.5 -63.5q-20 14 -17 22.5t13 12.5q12 4 33 4v-301h-219z" />
<glyph unicode="&#x2019;" horiz-adv-x="454" d="M86 922v202q45 23 53 64h-26v301h219v-238q0 -43 -8.5 -85t-34 -84t-74.5 -83t-129 -77z" />
<glyph unicode="&#x201a;" horiz-adv-x="454" d="M86 -133q25 12 37 26t16 39q-12 -4 -18 -4h-8v303h219v-237q0 -43 -8.5 -85t-34 -84t-74.5 -83t-129 -78v203z" />
<glyph unicode="&#x201c;" horiz-adv-x="720" d="M100 967v235q0 43 10.5 86t39 85t83 80t144.5 73v-199q-41 -16 -53.5 -36.5t-12.5 -61.5q-20 14 -16 22.5t14 12.5q12 4 35 4v-301h-244zM381 967v235q0 43 10 86t39 85t83 80t144 73v-199q-41 -16 -53 -36.5t-12 -61.5q-20 14 -16 22.5t14 12.5q12 4 35 4v-301h-244z " />
<glyph unicode="&#x201d;" horiz-adv-x="720" d="M63 928v198q54 23 62 62h-29v301h244v-238q0 -43 -10.5 -86t-39 -85t-83.5 -79.5t-144 -72.5zM344 928v198q54 23 62 62h-29v301h244v-238q0 -43 -10.5 -86t-39 -85t-84 -79.5t-143.5 -72.5z" />
<glyph unicode="&#x201e;" horiz-adv-x="720" d="M63 -131q31 12 45.5 26t18.5 37q-16 -4 -21 -4h-10v303h244v-237q0 -43 -10.5 -86t-39 -85t-83.5 -80t-144 -73v199zM344 -131q31 12 45.5 26t18.5 37q-16 -4 -21 -4h-10v303h244v-237q0 -43 -10.5 -86t-39 -85t-84 -80t-143.5 -73v199z" />
<glyph unicode="&#x2022;" horiz-adv-x="1024" d="M96 731q0 76 33 142.5t89 115.5t132 78t162 29t162 -29t132 -78t89 -115.5t33 -142.5t-33 -142.5t-89 -115.5t-132 -77.5t-162 -28.5t-162 28.5t-132 77.5t-89 115.5t-33 142.5z" />
<glyph unicode="&#x2026;" horiz-adv-x="2048" d="M238 -27v258h254v-258h-254zM897 -27v258h254v-258h-254zM1556 -27v258h254v-258h-254z" />
<glyph unicode="&#x202f;" horiz-adv-x="394" />
<glyph unicode="&#x2039;" horiz-adv-x="606" d="M98 485v136l381 395v-301l-153 -162l153 -162v-301z" />
<glyph unicode="&#x203a;" horiz-adv-x="606" d="M127 90v301l154 162l-154 162v301l381 -395v-136z" />
<glyph unicode="&#x205f;" horiz-adv-x="493" />
<glyph unicode="&#x2122;" horiz-adv-x="2027" d="M39 1288v201h788v-201h-284v-694h-219v694h-285zM829 594v895h242l256 -533l258 533h240v-895h-219v438l-211 -438h-138l-206 436v-436h-222z" />
<glyph unicode="&#xe000;" horiz-adv-x="1075" d="M0 0v1075h1075v-1075h-1075z" />
<glyph unicode="&#xfb01;" horiz-adv-x="909" d="M-72 881v221h232v76q0 68 14 126t50 102t99.5 69.5t161.5 25.5q37 0 85 -6t145 -14v-228q-96 16 -141 21.5t-76 5.5q-16 0 -32.5 -1t-33.5 -9q-10 -4 -21.5 -17.5t-11.5 -48.5v-102h285v-221h-285v-908h-239v908h-232zM627 -27v1129h239v-1129h-239zM627 1143v346h239 v-346h-239z" />
<glyph unicode="&#xfb02;" horiz-adv-x="909" d="M-72 881v221h232v76q0 68 14 126t50 102t99.5 69.5t161.5 25.5q37 0 85 -6t145 -14v-228q-96 16 -141 21.5t-76 5.5q-16 0 -32.5 -1t-33.5 -9q-10 -4 -21.5 -17.5t-11.5 -48.5v-102h285v-221h-285v-908h-239v908h-232zM627 -27v1516h239v-1516h-239z" />
</font>
</defs>
</svg>
